<?xml version="1.0" encoding="utf-8"?>
<!-- Generator: Adobe Illustrator 16.0.0, SVG Export Plug-In . SVG Version: 6.00 Build 0)  -->
<!DOCTYPE svg PUBLIC "-//W3C//DTD SVG 1.1//EN" "http://www.w3.org/Graphics/SVG/1.1/DTD/svg11.dtd">
<svg version="1.1" id="Layer_1" xmlns="http://www.w3.org/2000/svg" xmlns:xlink="http://www.w3.org/1999/xlink" x="0px" y="0px"
	 width="115.167px" height="115.722px" viewBox="0 0 115.167 115.722" enable-background="new 0 0 115.167 115.722"
	 xml:space="preserve">
<g id="bear_2_">
	<g id="icon_13_">
		<g>
			<circle fill="#EDC621" cx="57.584" cy="57.86" r="55.186"/>
		</g>
		<g>
			<defs>
				<circle id="SVGID_1_" cx="57.584" cy="57.86" r="55.186"/>
			</defs>
			<use xlink:href="#SVGID_1_"  overflow="visible" fill="#EDC621"/>
			<clipPath id="SVGID_2_">
				<use xlink:href="#SVGID_1_"  overflow="visible"/>
			</clipPath>
			<g clip-path="url(#SVGID_2_)">
				<polygon fill="#FFD41A" points="151.754,98.407 101.2,148.961 33.773,81.534 81.012,27.664 				"/>
			</g>
			<use xlink:href="#SVGID_1_"  overflow="visible" fill="none" stroke="#FFFFFF" stroke-width="2" stroke-miterlimit="10"/>
		</g>
	</g>
	<g id="bear_3_">
		<g>
			<g>
				<path fill="#A86554" d="M78.532,37.631c-1.361-2.665-4.124-4.318-7.116-4.318H45.708c0.032-0.265,0.052-0.532,0.052-0.805
					c0-3.74-3.032-6.771-6.772-6.771s-6.772,3.031-6.772,6.771c0,2.722,1.609,5.062,3.925,6.14
					c-4.853,9.989-7.957,23.598-7.957,30.708c0,15.215,22.742,22.727,29.4,22.727c6.887,0,29.401-7.512,29.401-22.727
					C86.985,62.004,83.67,47.693,78.532,37.631z"/>
				<g>
					<path fill="#8B4D3F" d="M38.988,36.526c-2.215,0-4.018-1.801-4.018-4.018c0-2.215,1.803-4.018,4.018-4.018
						c2.216,0,4.018,1.803,4.018,4.018C43.005,34.725,41.204,36.526,38.988,36.526z"/>
				</g>
				<g>
					<circle fill="#A86554" cx="76.179" cy="32.508" r="6.772"/>
				</g>
				<g>
					<path fill="#8B4D3F" d="M76.18,36.526c-2.217,0-4.019-1.801-4.019-4.018c0-2.215,1.802-4.018,4.019-4.018
						c2.215,0,4.018,1.803,4.018,4.018C80.198,34.725,78.395,36.526,76.18,36.526z"/>
				</g>
			</g>
			<g>
				<ellipse fill="#C2B083" cx="57.583" cy="84.393" rx="6.543" ry="4.477"/>
			</g>
			<g>
				<path fill="#E5D4A8" d="M57.583,50.76L57.583,50.76c-3.799,0-6.997,2.557-7.447,5.952L46.955,80.67
					c-0.33,2.488,1.829,4.68,4.613,4.68h12.031c2.784,0,4.943-2.191,4.612-4.68l-3.181-23.958
					C64.581,53.317,61.382,50.76,57.583,50.76z"/>
			</g>
			<g>
				<path fill="#494848" d="M65.925,78.653c0,1.713-3.838,4.477-8.571,4.477s-8.571-2.764-8.571-4.477c0-1.711,3.838-3.1,8.571-3.1
					S65.925,76.942,65.925,78.653z"/>
			</g>
			<g>
				<path fill="#5A5A5B" d="M62.341,78.182c0,0.996-2.232,2.605-4.987,2.605s-4.987-1.609-4.987-2.605s2.232-1.803,4.987-1.803
					S62.341,77.186,62.341,78.182z"/>
			</g>
			<g>
				<g>
					<g>
						<circle fill="#494848" cx="45.576" cy="58.835" r="2.033"/>
					</g>
					<g>
						<circle fill="#FFFFFF" cx="44.988" cy="58.158" r="0.723"/>
					</g>
				</g>
				<g>
					<g>
						<circle fill="#494848" cx="69.897" cy="58.835" r="2.033"/>
					</g>
					<g>
						<circle fill="#FFFFFF" cx="69.31" cy="58.158" r="0.723"/>
					</g>
				</g>
			</g>
		</g>
		<g>
			<path fill="#E5C7AC" d="M79.028,38.647c2.314-1.076,3.924-3.416,3.924-6.139c0-3.74-3.031-6.771-6.771-6.771
				c-3.741,0-6.773,3.031-6.773,6.771c0,0.273,0.021,0.54,0.052,0.805H57.367v58.762c0.072,0.002,0.15,0.008,0.217,0.008
				c6.887,0,29.401-7.512,29.401-22.727C86.985,62.247,83.879,48.637,79.028,38.647z"/>
		</g>
	</g>
</g>
</svg>
