<?xml version="1.0" encoding="utf-8"?>
<!-- Generator: Adobe Illustrator 16.0.0, SVG Export Plug-In . SVG Version: 6.00 Build 0)  -->
<!DOCTYPE svg PUBLIC "-//W3C//DTD SVG 1.1//EN" "http://www.w3.org/Graphics/SVG/1.1/DTD/svg11.dtd">
<svg version="1.1" id="Layer_1" xmlns="http://www.w3.org/2000/svg" xmlns:xlink="http://www.w3.org/1999/xlink" x="0px" y="0px"
	 width="115.167px" height="115.722px" viewBox="0 0 115.167 115.722" enable-background="new 0 0 115.167 115.722"
	 xml:space="preserve">
<g id="icon_13_">
	<g>
		<circle fill="#EDC621" cx="57.583" cy="57.86" r="55.186"/>
	</g>
	<g>
		<defs>
			<circle id="SVGID_1_" cx="57.583" cy="57.86" r="55.186"/>
		</defs>
		<use xlink:href="#SVGID_1_"  overflow="visible" fill="#EDC621"/>
		<clipPath id="SVGID_2_">
			<use xlink:href="#SVGID_1_"  overflow="visible"/>
		</clipPath>
		<g clip-path="url(#SVGID_2_)">
			<polygon fill="#E8AE01" points="151.754,98.407 101.2,148.961 33.773,81.534 81.011,27.664 			"/>
		</g>
		<use xlink:href="#SVGID_1_"  overflow="visible" fill="none" stroke="#FFFFFF" stroke-width="2" stroke-miterlimit="10"/>
	</g>
</g>
<g>
	<path fill="#A86554" d="M43.751,33.313c-2.992,0-5.755,1.653-7.116,4.318c-5.14,10.062-8.452,24.373-8.452,31.725
		c0,15.215,22.742,22.727,29.4,22.727c6.887,0,29.4-7.512,29.4-22.727c0-7.352-3.313-21.663-8.453-31.725
		c-1.36-2.665-4.123-4.318-7.115-4.318H43.751z"/>
</g>
<g>
	<circle fill="#A86554" cx="38.988" cy="32.508" r="6.772"/>
</g>
<g>
	<path fill="#8B4D3F" d="M38.988,36.526c-2.215,0-4.018-1.801-4.018-4.018c0-2.215,1.803-4.018,4.018-4.018
		c2.216,0,4.018,1.803,4.018,4.018C43.005,34.725,41.204,36.526,38.988,36.526z"/>
</g>
<g>
	<circle fill="#9A523E" cx="76.179" cy="32.508" r="6.772"/>
</g>
<path fill="#9A523E" d="M86.946,67.924c-0.01-0.197-0.029-0.414-0.043-0.619c-0.021-0.312-0.038-0.62-0.067-0.949
	c-0.025-0.28-0.061-0.578-0.092-0.869c-0.029-0.271-0.054-0.536-0.088-0.816c-0.044-0.356-0.098-0.729-0.15-1.1
	c-0.032-0.229-0.061-0.452-0.096-0.686c-0.066-0.432-0.142-0.878-0.218-1.324c-0.031-0.183-0.059-0.36-0.091-0.545
	c-0.089-0.496-0.187-1.004-0.289-1.516c-0.028-0.143-0.054-0.283-0.083-0.427c-0.113-0.559-0.236-1.126-0.364-1.697
	c-0.022-0.101-0.042-0.198-0.065-0.299c-0.14-0.615-0.289-1.238-0.444-1.866c-0.014-0.057-0.027-0.113-0.042-0.17
	c-0.165-0.662-0.339-1.328-0.522-1.998c-0.006-0.024-0.013-0.049-0.02-0.073c-0.189-0.693-0.388-1.39-0.595-2.087
	c0-0.002-0.001-0.004-0.002-0.006c-1.044-3.516-2.308-7.048-3.749-10.291c-0.007-0.017-0.015-0.033-0.022-0.05
	c-0.277-0.621-0.561-1.231-0.85-1.829c-0.175-0.36-0.346-0.727-0.524-1.076c-1.36-2.665-4.123-4.318-7.115-4.318h-1.957H57.367
	v58.762c0.072,0.002,0.15,0.008,0.217,0.008c6.887,0,29.4-7.512,29.4-22.727C86.984,68.905,86.971,68.426,86.946,67.924z"/>
<g>
	<ellipse fill="#C2B083" cx="57.583" cy="84.393" rx="6.543" ry="4.477"/>
</g>
<g>
	<path fill="#E5D4A8" d="M57.583,50.76L57.583,50.76c-3.799,0-6.997,2.557-7.447,5.952L46.955,80.67
		c-0.33,2.488,1.829,4.68,4.613,4.68h12.031c2.784,0,4.943-2.191,4.612-4.68l-3.181-23.958C64.581,53.317,61.382,50.76,57.583,50.76
		z"/>
</g>
<g>
	<path fill="#494848" d="M65.925,78.653c0,1.713-3.838,4.477-8.571,4.477s-8.571-2.764-8.571-4.477c0-1.711,3.838-3.1,8.571-3.1
		S65.925,76.942,65.925,78.653z"/>
</g>
<path fill="#AE8A5A" d="M57.367,88.862c0.073,0.002,0.144,0.008,0.217,0.008c3.613,0,6.543-2.004,6.543-4.477
	s-2.93-4.477-6.543-4.477c-0.073,0-0.144,0.006-0.217,0.008V88.862z"/>
<path fill="#CDA471" d="M57.367,85.35h6.232c2.784,0,4.943-2.191,4.612-4.68l-3.181-23.958c-0.45-3.396-3.648-5.952-7.447-5.952
	c-0.073,0-0.144,0.007-0.217,0.009V85.35z"/>
<g>
	<g>
		<g>
			<circle fill="#494848" cx="45.576" cy="58.835" r="2.033"/>
		</g>
		<g>
			<circle fill="#FFFFFF" cx="44.988" cy="58.158" r="0.723"/>
		</g>
	</g>
	<g>
		<g>
			<circle fill="#443A34" cx="69.897" cy="58.835" r="2.033"/>
		</g>
		<g>
			<circle fill="#FFFFFF" cx="69.31" cy="58.158" r="0.723"/>
		</g>
	</g>
</g>
<g>
	<path fill="#7E3E2F" d="M76.179,36.526c-2.216,0-4.018-1.801-4.018-4.018c0-2.215,1.802-4.018,4.018-4.018
		c2.215,0,4.018,1.803,4.018,4.018C80.197,34.725,78.394,36.526,76.179,36.526z"/>
</g>
<path fill="#443A34" d="M57.367,83.129c4.728-0.006,8.559-2.766,8.559-4.477c0-1.709-3.831-3.097-8.559-3.1V83.129z"/>
<g>
	<path fill="#5A5A5B" d="M62.341,78.182c0,0.996-2.232,2.605-4.987,2.605s-4.987-1.609-4.987-2.605s2.232-1.803,4.987-1.803
		S62.341,77.186,62.341,78.182z"/>
</g>
<path fill="#544842" d="M57.367,80.787c2.749-0.005,4.975-1.61,4.975-2.604s-2.226-1.8-4.975-1.802V80.787z"/>
</svg>
