<?xml version="1.0" encoding="utf-8"?>
<!-- Generator: Adobe Illustrator 16.0.0, SVG Export Plug-In . SVG Version: 6.00 Build 0)  -->
<!DOCTYPE svg PUBLIC "-//W3C//DTD SVG 1.1//EN" "http://www.w3.org/Graphics/SVG/1.1/DTD/svg11.dtd">
<svg version="1.1" id="Layer_1" xmlns="http://www.w3.org/2000/svg" xmlns:xlink="http://www.w3.org/1999/xlink" x="0px" y="0px"
	 width="115.167px" height="115.722px" viewBox="0 0 115.167 115.722" enable-background="new 0 0 115.167 115.722"
	 xml:space="preserve">
<g id="icon_10_">
	<g id="icon_shadow_1_">
		<defs>
			<circle id="SVGID_1_" cx="57.583" cy="57.861" r="55.187"/>
		</defs>
		<use xlink:href="#SVGID_1_"  overflow="visible" fill="#EC6895"/>
		<clipPath id="SVGID_2_">
			<use xlink:href="#SVGID_1_"  overflow="visible"/>
		</clipPath>
		<g clip-path="url(#SVGID_2_)">
			<polygon fill="#E2497D" points="155.714,93.862 101.579,147.997 32.528,78.946 91.141,29.29 			"/>
		</g>
		<use xlink:href="#SVGID_1_"  overflow="visible" fill="none" stroke="#FFFFFF" stroke-width="2" stroke-miterlimit="10"/>
	</g>
</g>
<g>
	<g>
		<path fill="#E5D4A8" d="M31.247,51.952c-4.31-3.663-9.569-20.439-7.285-22.723c2.229-2.229,19.06,2.976,22.723,7.285
			C41.538,41.66,36.392,46.806,31.247,51.952z"/>
	</g>
	<g>
		<path fill="#7E5133" d="M33.141,49.842c-3.191-2.714-7.088-15.138-5.396-16.829c1.65-1.651,14.117,2.203,16.83,5.395
			C40.763,42.219,36.952,46.031,33.141,49.842z"/>
	</g>
</g>
<g>
	<path fill="#E5D4A8" d="M70.703,35.335v0.098H44.047c-9.025,6.943-17.771,21.355-17.771,32.582
		c0,10.933,23.428,23.862,31.238,23.862c9.023,0,31.236-14.664,31.236-23.862C88.75,56.738,79.778,42.266,70.703,35.335z"/>
</g>
<g>
	<ellipse fill="#9F663E" cx="57.585" cy="78.331" rx="10.511" ry="8.08"/>
</g>
<g>
	<path fill="#7E5133" d="M79.877,65.375c2.434,10.374-6.857,19.921-22.369,14.767c-13.885,5.295-24.297-4.287-22.369-14.767
		c2.075-11.285,9.459-23.824,22.369-23.824C70.094,41.55,77.199,53.95,79.877,65.375z"/>
</g>
<g>
	<g>
		<path fill="#D7B984" d="M83.92,51.952c4.31-3.663,9.569-20.439,7.285-22.723C88.977,27,72.145,32.204,68.483,36.513
			C73.629,41.66,78.775,46.806,83.92,51.952z"/>
	</g>
	<g>
		<path fill="#74492C" d="M82.026,49.842c3.191-2.714,7.088-15.138,5.396-16.829c-1.65-1.651-14.116,2.203-16.829,5.395
			C74.403,42.219,78.215,46.031,82.026,49.842z"/>
	</g>
</g>
<path fill="#D7B984" d="M88.556,65.191c-0.052-0.434-0.104-0.866-0.177-1.306c-0.057-0.333-0.13-0.671-0.199-1.007
	c-0.075-0.365-0.148-0.73-0.236-1.098c-0.093-0.387-0.2-0.775-0.308-1.164c-0.087-0.313-0.175-0.628-0.271-0.943
	c-0.133-0.433-0.275-0.867-0.425-1.301c-0.091-0.264-0.184-0.526-0.28-0.789c-0.176-0.478-0.358-0.955-0.553-1.433
	c-0.084-0.207-0.173-0.414-0.261-0.621c-0.222-0.523-0.451-1.047-0.694-1.567c-0.065-0.14-0.134-0.278-0.201-0.418
	c-0.276-0.577-0.559-1.154-0.859-1.726c-3.453-6.583-8.401-12.674-13.389-16.483v0.098H69.65H57.514v56.444
	c9.023,0,31.236-14.664,31.236-23.862c0-0.671-0.036-1.354-0.098-2.045C88.629,65.713,88.587,65.451,88.556,65.191z"/>
<path fill="#945B3F" d="M57.514,86.408c0.024,0,0.048,0.003,0.072,0.003c5.805,0,10.51-3.617,10.51-8.08s-4.705-8.081-10.51-8.081
	c-0.024,0-0.048,0.003-0.072,0.003V86.408z"/>
<path fill="#945B3F" d="M57.514,86.408c0.024,0,0.048,0.003,0.072,0.003c5.805,0,10.51-3.617,10.51-8.08s-4.705-8.081-10.51-8.081
	c-0.024,0-0.048,0.003-0.072,0.003V86.408z"/>
<path fill="#74492C" d="M57.514,41.55v38.593c15.508,5.149,24.796-4.396,22.363-14.769C77.199,53.952,70.096,41.554,57.514,41.55z"
	/>
<g>
	<path fill="#F7BBC0" d="M60.641,74.489h-6.266c-0.209,0-0.389,0.061-0.551,0.145c-0.111,0.189-0.188,0.389-0.188,0.6
		c0,1.129,1.733,2.045,3.872,2.045s3.873-0.916,3.873-2.045c0-0.211-0.078-0.41-0.189-0.6C61.03,74.549,60.85,74.489,60.641,74.489z
		"/>
</g>
<g>
	<g>
		<g>
			<path fill="#4BBED5" d="M50.944,64.507c0,0-3.041,1.893-5.651,0.986c-2.622-0.912-4.332-2.814-3.823-4.277
				c0.376-1.086,1.867-1.605,3.68-1.424c0.631,0.053,1.298,0.203,1.972,0.436c0.59,0.205,1.11,0.539,1.563,0.934
				C50.215,62.496,50.944,64.507,50.944,64.507z"/>
		</g>
		<g>
			<path fill="#494848" d="M48.508,62.587c-0.505,1.451-1.852,2.307-3.02,1.9c-1.158-0.402-1.697-1.91-1.191-3.363
				c0.186-0.537,0.484-0.988,0.852-1.332c0.631,0.053,1.298,0.203,1.972,0.436c0.59,0.205,1.11,0.539,1.563,0.934
				C48.729,61.613,48.676,62.103,48.508,62.587z"/>
		</g>
		<g>
			<circle fill="#FFFFFF" cx="44.499" cy="61.855" r="1.041"/>
		</g>
	</g>
	<g>
		<g>
			<path fill="#50A9AB" d="M64.227,64.507c0,0,3.041,1.893,5.652,0.986c2.621-0.912,4.332-2.814,3.824-4.277
				c-0.377-1.086-1.867-1.605-3.681-1.424c-0.63,0.053-1.298,0.203-1.972,0.436c-0.59,0.205-1.111,0.539-1.564,0.934
				C64.957,62.496,64.227,64.507,64.227,64.507z"/>
		</g>
		<g>
			<path fill="#45413C" d="M66.664,62.587c0.505,1.451,1.852,2.307,3.021,1.9c1.158-0.402,1.695-1.91,1.191-3.363
				c-0.188-0.537-0.484-0.988-0.853-1.332c-0.63,0.053-1.298,0.203-1.972,0.436c-0.59,0.205-1.111,0.539-1.564,0.934
				C66.444,61.613,66.496,62.103,66.664,62.587z"/>
		</g>
		<g>
			<circle fill="#FFFFFF" cx="67.059" cy="62.505" r="1.042"/>
		</g>
	</g>
</g>
<g>
	<g>
		
			<ellipse transform="matrix(0.8922 0.4516 -0.4516 0.8922 30.833 -14.144)" fill="#9F663E" cx="45.045" cy="57.517" rx="2.82" ry="1.04"/>
	</g>
	<g>
		
			<ellipse transform="matrix(-0.8922 0.4516 -0.4516 -0.8922 158.6611 77.164)" fill="#945B3F" cx="70.122" cy="57.517" rx="2.82" ry="1.04"/>
	</g>
</g>
<g>
	<path fill="#F3A3AB" d="M61.421,76.625l-3.085,2.6c-0.479,0.402-1.178,0.402-1.656,0l-3.084-2.6
		c-0.863-0.729-0.35-2.137,0.779-2.137h6.266C61.77,74.489,62.285,75.897,61.421,76.625z"/>
</g>
<path fill="#E4A298" d="M57.514,79.526c0.292-0.001,0.584-0.101,0.822-0.301l3.085-2.6c0.863-0.729,0.349-2.137-0.78-2.137h-3.127
	V79.526z"/>
</svg>
