<?xml version="1.0" encoding="utf-8"?>
<!-- Generator: Adobe Illustrator 16.0.0, SVG Export Plug-In . SVG Version: 6.00 Build 0)  -->
<!DOCTYPE svg PUBLIC "-//W3C//DTD SVG 1.1//EN" "http://www.w3.org/Graphics/SVG/1.1/DTD/svg11.dtd">
<svg version="1.1" id="Layer_1" xmlns="http://www.w3.org/2000/svg" xmlns:xlink="http://www.w3.org/1999/xlink" x="0px" y="0px"
	 width="158.111px" height="155.641px" viewBox="0 0 158.111 155.641" enable-background="new 0 0 158.111 155.641"
	 xml:space="preserve">
<g>
	<path fill="#E73440" stroke="#FFFFFF" stroke-width="16" stroke-miterlimit="10" d="M79.467,103.563L67.63,115.399
		c-23.939,23.936-33.145,33.144-46.033,20.256c-6.047-6.049-8.679-13.421,4.21-28.938c9.469-11.047,14.202-16.307,27.09-29.194
		C17.392,42.016,8.186,32.81,21.073,19.918c6.051-6.047,13.415-8.679,28.932,4.209c11.047,9.469,16.311,14.204,29.195,27.09
		c9.205-8.679,18.415-17.357,28.145-26.038c17.624-15.52,23.147-12.099,29.988-5.262c6.311,6.311,7.625,13.942-5.787,28.935
		c-7.631,8.153-16.307,17.888-26.566,28.671c8.946,8.945,17.621,18.146,26.563,28.141c15.523,17.626,12.104,23.151,5.267,29.989
		c-6.313,6.312-13.941,7.626-28.935-5.787C99.456,122.5,90.247,113.821,79.467,103.563z"/>
</g>
</svg>
