<?xml version="1.0" encoding="utf-8"?>
<!-- Generator: Adobe Illustrator 16.0.0, SVG Export Plug-In . SVG Version: 6.00 Build 0)  -->
<!DOCTYPE svg PUBLIC "-//W3C//DTD SVG 1.1//EN" "http://www.w3.org/Graphics/SVG/1.1/DTD/svg11.dtd">
<svg version="1.1" id="Layer_1" xmlns="http://www.w3.org/2000/svg" xmlns:xlink="http://www.w3.org/1999/xlink" x="0px" y="0px"
	 width="115.167px" height="115.722px" viewBox="0 0 115.167 115.722" enable-background="new 0 0 115.167 115.722"
	 xml:space="preserve">
<g id="deer_1_">
	<g id="icon_17_">
		<g>
			<defs>
				<circle id="SVGID_1_" cx="57.584" cy="57.86" r="55.186"/>
			</defs>
			<use xlink:href="#SVGID_1_"  overflow="visible" fill="#3EBFEE"/>
			<clipPath id="SVGID_2_">
				<use xlink:href="#SVGID_1_"  overflow="visible"/>
			</clipPath>
			<g clip-path="url(#SVGID_2_)">
				<polygon fill="#83D0F5" points="155.612,93.965 103.243,146.334 46.164,89.256 73.019,45.881 84.866,33.76 88.002,26.354 				
					"/>
			</g>
			<use xlink:href="#SVGID_1_"  overflow="visible" fill="none" stroke="#FFFFFF" stroke-width="2" stroke-miterlimit="10"/>
		</g>
	</g>
	<g>
		<g>
			<g>
				<path fill="#925531" d="M29.179,34.278c-1.297-1.588-2.184-2.656-2.605-3.93c-0.424-1.273-0.484-2.607,0.324-3.678
					c1.08-1.436,6.111-5.764,8.291-6.311c1.73-0.432,3.314,1.498,2.812,2.922c-0.648,1.838-1.791,1.707-5.588,3.604
					c-2.02,1.01-3.434,2.34-2.518,4.043c0.529,0.986,0.896,1.242,1.688,1.33c0.975,0.107,1.191-0.18,2.525-1.299
					c1.951-1.635,2.383-2.322,3.893-3.027c1.082-0.506,3.137,0.865,2.271,2.486c-0.547,1.025-2.537,1.969-4.002,2.668
					c-0.828,0.396-1.551,1.01-1.514,1.66c0.045,0.803,0.932,2.158,1.73,2.379c0.586,0.162,1.352-0.717,1.838-1.082
					c0.865-0.648,1.299-1.297,2.271-2.055c1.455-1.131,3.488,0.795,1.947,2.055c-1.189,0.973-1.838,1.082-2.596,1.623
					c-0.686,0.488-1.73,0.973-1.189,1.945c1.26,2.27,6.191,4.891,8.895,6.695c-1.209,1.209-2.135,1.922-3.641,2.67
					C44.013,48.977,33.929,40.081,29.179,34.278z"/>
			</g>
			<g>
				<path fill="#925531" d="M85.856,34.278c0.809-1.07,2.314-2.656,2.738-3.93c0.422-1.273,0.482-2.607-0.324-3.678
					c-1.08-1.436-6.111-5.764-8.293-6.311c-1.73-0.432-3.315,1.498-2.813,2.922c0.651,1.838,1.794,1.707,5.591,3.604
					c2.018,1.01,3.434,2.34,2.518,4.043c-0.529,0.986-0.898,1.242-1.689,1.33c-0.973,0.107-1.189-0.18-2.523-1.299
					c-1.953-1.635-2.383-2.322-3.896-3.027c-1.08-0.506-3.135,0.865-2.27,2.486c0.545,1.025,2.536,1.969,4.003,2.668
					c0.828,0.396,1.549,1.01,1.514,1.66c-0.045,0.803-0.932,2.158-1.73,2.379c-0.588,0.162-1.352-0.717-1.841-1.082
					c-0.865-0.648-1.297-1.297-2.271-2.055c-1.453-1.131-3.486,0.795-1.945,2.055c1.189,0.973,1.838,1.082,2.596,1.623
					c0.684,0.488,1.73,0.973,1.189,1.945c-1.262,2.27-6.193,4.891-8.895,6.695c1.209,1.209,2.133,1.922,3.641,2.67
					C71.154,48.977,81.333,40.258,85.856,34.278z"/>
			</g>
		</g>
		<g>
			<g>
				<g>
					<path fill="#B35E2B" d="M36.228,55.208c-2.201,3.582-9.1,3.344-14.246,0.182s-6.59-8.049-4.389-11.631
						c2.201-3.584,7.215-4.504,12.359-1.342C35.099,45.579,38.429,51.625,36.228,55.208z"/>
				</g>
				<g>
					<path fill="#925531" d="M34.201,54.877c-1.373,2.234-6.033,1.867-9.242-0.104c-3.211-1.973-3.756-4.805-2.383-7.039
						s4.145-3.027,7.355-1.055C33.14,48.653,35.574,52.643,34.201,54.877z"/>
				</g>
			</g>
			<g>
				<g>
					<path fill="#B35E2B" d="M78.938,55.208c2.201,3.582,9.102,3.344,14.248,0.182c5.145-3.162,6.588-8.049,4.387-11.631
						c-2.201-3.584-7.213-4.504-12.359-1.342C80.069,45.579,76.736,51.625,78.938,55.208z"/>
				</g>
				<g>
					<path fill="#925531" d="M80.967,54.877c1.373,2.234,6.031,1.867,9.242-0.104c3.209-1.973,3.756-4.805,2.383-7.039
						s-4.146-3.027-7.355-1.055C82.026,48.653,79.594,52.643,80.967,54.877z"/>
				</g>
			</g>
		</g>
		<g>
			<path fill="#B35E2B" d="M83.196,60.69c0,10.713-9.554,25.109-18.077,31.479c-0.164,0.121-0.32,0.242-0.484,0.355
				c-2.561,1.824-5.01,2.898-7.051,2.898c-2.215,0-4.682-0.986-7.199-2.684c-0.225-0.154-0.449-0.311-0.676-0.475
				c-8.746-6.309-17.736-20.811-17.736-31.574c0-0.303,0.008-0.605,0.025-0.908c0.477-13.473,11.742-18.646,25.586-18.646
				s25.11,5.174,25.587,18.646C83.188,60.084,83.196,60.387,83.196,60.69z"/>
		</g>
		<g>
			<path fill="#494848" d="M65.119,92.168c-2.732,2.043-5.363,3.254-7.535,3.254c-2.414,0-5.131-1.178-7.875-3.158
				c2.164-0.598,4.898-0.953,7.875-0.953C60.404,91.311,63.017,91.631,65.119,92.168z"/>
		</g>
		<g>
			<path fill="#595858" d="M57.556,94.557c-1.381,0-2.986-0.65-4.709-1.896c1.441-0.314,3.061-0.484,4.709-0.484
				c1.562,0,3.07,0.146,4.443,0.426C60.312,93.885,58.794,94.557,57.556,94.557z"/>
		</g>
		<g>
			<path fill="#DB8658" d="M54.113,78.983c0,5.252-1.4,10.062-3.729,13.756c-0.225-0.154-0.449-0.311-0.676-0.475
				c-8.746-6.309-17.736-20.811-17.736-31.574c0-0.303,0.008-0.605,0.025-0.908c1.998-1.281,4.23-1.998,6.584-1.998
				C47.156,57.784,54.113,67.276,54.113,78.983z"/>
		</g>
		<g>
			<path fill="#DB8658" d="M83.196,60.69c0,10.713-9.554,25.109-18.077,31.479c-0.164,0.121-0.32,0.242-0.484,0.355
				c-2.232-3.67-3.582-8.395-3.582-13.541c0-11.707,6.957-21.199,15.531-21.199c2.354,0,4.587,0.717,6.587,1.998
				C83.188,60.084,83.196,60.387,83.196,60.69z"/>
		</g>
		<g>
			<g>
				<g>
					<circle fill="#494848" cx="44.715" cy="74.94" r="2.071"/>
				</g>
				<g>
					<circle fill="#FFFFFF" cx="44.117" cy="74.249" r="0.736"/>
				</g>
			</g>
			<g>
				<g>
					<circle fill="#494848" cx="70.452" cy="74.94" r="2.071"/>
				</g>
				<g>
					<circle fill="#FFFFFF" cx="69.853" cy="74.249" r="0.736"/>
				</g>
			</g>
		</g>
		<g>
			<g>
				<g>
					<ellipse fill="#DB8658" cx="60.45" cy="87.752" rx="0.382" ry="1.781"/>
				</g>
				<g>
					<ellipse fill="#DB8658" cx="58.539" cy="87.752" rx="0.383" ry="1.781"/>
				</g>
				<g>
					<ellipse fill="#DB8658" cx="56.627" cy="87.752" rx="0.382" ry="1.781"/>
				</g>
				<g>
					<ellipse fill="#DB8658" cx="54.716" cy="87.752" rx="0.383" ry="1.781"/>
				</g>
			</g>
			<g>
				<g>
					<ellipse fill="#DB8658" cx="59.495" cy="83.276" rx="0.382" ry="1.779"/>
				</g>
				<g>
					<ellipse fill="#DB8658" cx="57.583" cy="83.276" rx="0.383" ry="1.779"/>
				</g>
				<g>
					<ellipse fill="#DB8658" cx="55.671" cy="83.276" rx="0.383" ry="1.779"/>
				</g>
			</g>
			<g>
				<g>
					<ellipse fill="#DB8658" cx="58.539" cy="79.042" rx="0.383" ry="1.779"/>
				</g>
				<g>
					<ellipse fill="#DB8658" cx="56.627" cy="79.042" rx="0.382" ry="1.779"/>
				</g>
			</g>
		</g>
		<g>
			<path fill="#F1D5BA" d="M97.573,43.758c-2.201-3.584-7.213-4.504-12.359-1.342c-2.623,1.611-4.768,3.973-5.955,6.375
				c-1.133-1.35-2.481-2.502-4.011-3.471c3.351-3.082,7.95-7.529,10.608-11.043c0.809-1.07,2.314-2.656,2.738-3.93
				c0.422-1.273,0.482-2.607-0.324-3.678c-1.08-1.436-6.111-5.764-8.293-6.311c-1.73-0.432-3.315,1.498-2.812,2.922
				c0.649,1.838,1.792,1.707,5.589,3.604c2.018,1.01,3.434,2.34,2.518,4.043c-0.529,0.986-0.898,1.242-1.689,1.33
				c-0.973,0.107-1.189-0.18-2.523-1.299c-1.953-1.635-2.383-2.322-3.894-3.027c-1.082-0.506-3.137,0.865-2.271,2.486
				c0.545,1.025,2.536,1.969,4.003,2.668c0.828,0.396,1.549,1.01,1.514,1.66c-0.045,0.803-0.932,2.158-1.73,2.379
				c-0.588,0.162-1.352-0.717-1.841-1.082c-0.865-0.648-1.297-1.297-2.271-2.055c-1.453-1.131-3.486,0.795-1.945,2.055
				c1.189,0.973,1.838,1.082,2.596,1.623c0.684,0.488,1.73,0.973,1.189,1.945c-0.709,1.277-2.582,2.668-4.566,3.959
				c-4.074-1.68-8.977-2.436-14.258-2.436c-0.09,0-0.176,0.004-0.266,0.006v54.266c0.088,0.002,0.178,0.016,0.266,0.016
				c0.264,0,0.533-0.02,0.811-0.055c0.098-0.012,0.201-0.037,0.301-0.055c0.18-0.029,0.359-0.059,0.545-0.102
				c0.123-0.031,0.252-0.072,0.377-0.107c0.166-0.047,0.332-0.092,0.502-0.148c0.139-0.047,0.279-0.104,0.42-0.158
				c0.162-0.061,0.322-0.121,0.486-0.191c0.146-0.062,0.297-0.135,0.447-0.205c0.162-0.076,0.322-0.15,0.486-0.234
				c0.152-0.078,0.305-0.162,0.459-0.246c0.166-0.092,0.334-0.186,0.502-0.283c0.15-0.09,0.301-0.182,0.453-0.277
				c0.178-0.109,0.355-0.225,0.535-0.342c0.143-0.096,0.283-0.191,0.426-0.291c0.102-0.068,0.201-0.133,0.301-0.203
				c0.164-0.113,0.32-0.234,0.484-0.355c8.523-6.369,18.077-20.766,18.077-31.479c0-0.303-0.008-0.605-0.025-0.908
				c-0.027-0.734-0.09-1.438-0.18-2.123c3.021,0.551,6.955-0.277,10.195-2.27C98.331,52.227,99.774,47.34,97.573,43.758z"/>
		</g>
	</g>
</g>
</svg>
