<?xml version="1.0" encoding="utf-8"?>
<!-- Generator: Adobe Illustrator 16.0.0, SVG Export Plug-In . SVG Version: 6.00 Build 0)  -->
<!DOCTYPE svg PUBLIC "-//W3C//DTD SVG 1.1//EN" "http://www.w3.org/Graphics/SVG/1.1/DTD/svg11.dtd">
<svg version="1.1" id="Layer_1" xmlns="http://www.w3.org/2000/svg" xmlns:xlink="http://www.w3.org/1999/xlink" x="0px" y="0px"
	 width="115.167px" height="115.722px" viewBox="0 0 115.167 115.722" enable-background="new 0 0 115.167 115.722"
	 xml:space="preserve">
<g id="icon_14_">
	<g>
		<defs>
			<circle id="SVGID_1_" cx="57.584" cy="57.86" r="55.186"/>
		</defs>
		<use xlink:href="#SVGID_1_"  overflow="visible" fill="#005992"/>
		<clipPath id="SVGID_2_">
			<use xlink:href="#SVGID_1_"  overflow="visible"/>
		</clipPath>
		<g clip-path="url(#SVGID_2_)">
			<polygon fill="#1F4787" points="157.22,92.94 100.29,149.874 20.569,70.153 94.678,30.399 			"/>
		</g>
		<use xlink:href="#SVGID_1_"  overflow="visible" fill="none" stroke="#FFFFFF" stroke-width="2" stroke-miterlimit="10"/>
	</g>
</g>
<path fill="#EE7A4F" d="M84.288,53.073c-1.125-1.527-2.352-3.053-3.637-4.551c-6.336-7.33-14.352-13.719-23.068-13.719
	c-3.821,0-7.508,1.227-10.976,3.223c-5.855-4.908-23.627-10.194-26.119-7.703c-2.583,2.583,2.906,20.66,7.866,26.303
	c-4.883,7.162-7.8,13.327-7.8,13.327l29.096,17.959l0.572,0.35l0.109,0.07l5.789,3.568c0.896,0.553,2.028,0.553,2.924,0l5.73-3.537
	l0.17-0.102l0.572-0.35l29.105-17.959C94.622,69.954,90.694,61.62,84.288,53.073z"/>
<g>
	<path fill="#C35429" d="M31.454,54.952c-3.254-2.766-7.225-15.43-5.5-17.154c1.682-1.684,14.389,2.246,17.154,5.5
		C39.223,47.182,35.338,51.067,31.454,54.952z"/>
</g>
<g>
	<path fill="#E66438" d="M94.68,30.323c-2.492-2.492-20.27,2.795-26.123,7.705c-3.455-1.988-7.125-3.213-10.93-3.223V92.28
		c0.492,0.002,0.98-0.109,1.416-0.379l5.9-3.639l0.572-0.35l29.105-17.959c0,0-2.912-6.17-7.801-13.332
		C91.778,50.969,97.262,32.904,94.68,30.323z"/>
</g>
<g>
	<g>
		<path fill="#E66438" d="M85.977,57.471c5.148-4.377,11.432-24.419,8.703-27.148c-2.662-2.662-22.771,3.555-27.148,8.703
			C73.68,45.174,79.829,51.323,85.977,57.471z"/>
	</g>
	<g>
		<path fill="#C35429" d="M83.715,54.952c3.252-2.766,7.225-15.43,5.5-17.154c-1.684-1.684-14.391,2.246-17.156,5.5
			C75.944,47.182,79.831,51.067,83.715,54.952z"/>
	</g>
</g>
<path fill="#E3B888" d="M94.512,69.727c-0.01-0.021-0.019-0.039-0.03-0.062c-0.036-0.073-0.083-0.168-0.132-0.268
	c-0.015-0.03-0.03-0.062-0.046-0.094c-0.056-0.111-0.119-0.238-0.189-0.376c-0.016-0.032-0.034-0.067-0.051-0.102
	c-0.081-0.159-0.168-0.33-0.266-0.52c-0.001-0.002-0.002-0.004-0.003-0.006c-1.188-2.302-3.609-6.745-6.961-11.659
	c-0.799-1.171-1.645-2.366-2.546-3.568c-9.562,2.51-17.576,10.363-19.816,20.578c-1.104,5.051-0.652,9.963,1.045,14.262
	l29.105-17.959c0,0-0.017-0.036-0.035-0.073C94.57,69.845,94.541,69.787,94.512,69.727z"/>
<g>
	<g>
		<ellipse fill="#F1906D" cx="53.163" cy="70.239" rx="0.59" ry="2.408"/>
	</g>
	<g>
		<ellipse fill="#F1906D" cx="56.11" cy="70.239" rx="0.59" ry="2.408"/>
	</g>
	<g>
		<ellipse fill="#EA774B" cx="59.058" cy="70.239" rx="0.589" ry="2.408"/>
	</g>
	<g>
		<ellipse fill="#EA774B" cx="62.005" cy="70.239" rx="0.589" ry="2.408"/>
	</g>
</g>
<g>
	<ellipse fill="#F1906D" cx="54.637" cy="76.292" rx="0.589" ry="2.406"/>
</g>
<g>
	<ellipse fill="#EA774B" cx="60.532" cy="76.292" rx="0.59" ry="2.406"/>
</g>
<g>
	<g>
		<ellipse fill="#F1906D" cx="56.11" cy="82.018" rx="0.59" ry="2.408"/>
	</g>
	<g>
		<ellipse fill="#EA774B" cx="59.058" cy="82.018" rx="0.589" ry="2.408"/>
	</g>
</g>
<g>
	<path fill="#E9E1CA" d="M49.649,87.913L20.553,69.954c0,0,3.938-8.334,10.334-16.881c9.562,2.51,17.576,10.363,19.815,20.578
		C51.807,78.702,51.356,83.614,49.649,87.913z"/>
</g>
<g>
	<path fill="#494848" d="M64.944,88.262l-5.9,3.639c-0.896,0.553-2.027,0.553-2.924,0l-5.898-3.639
		c2.148-0.621,4.67-0.982,7.361-0.982S62.784,87.631,64.944,88.262z"/>
</g>
<path fill="#493C34" d="M57.627,92.28c0.12,0.001,0.24-0.007,0.359-0.021c0.008-0.001,0.016-0.002,0.024-0.003
	c0.151-0.019,0.299-0.054,0.445-0.098c0.202-0.066,0.402-0.144,0.588-0.258l5.9-3.639c-2.148-0.627-4.643-0.977-7.316-0.981V92.28z"
	/>
<g>
	<ellipse fill="#F1906D" cx="57.584" cy="76.292" rx="0.589" ry="2.406"/>
</g>
<g>
	<path fill="#747374" d="M61.821,88.598l-3.396,1.916c-0.517,0.291-1.168,0.291-1.684,0l-3.396-1.916
		c1.237-0.328,2.688-0.518,4.238-0.518C59.131,88.081,60.577,88.266,61.821,88.598z"/>
</g>
<g>
	<g>
		<circle fill="#494848" cx="44.891" cy="73.604" r="2.223"/>
	</g>
	<g>
		<circle fill="#FFFFFF" cx="44.249" cy="72.862" r="0.791"/>
	</g>
</g>
<g>
	<circle fill="#494848" cx="70.284" cy="73.604" r="2.223"/>
</g>
<g>
	<circle fill="#FFFFFF" cx="69.641" cy="72.862" r="0.791"/>
</g>
<path fill="#746153" d="M57.627,90.727c0.276-0.008,0.552-0.075,0.797-0.213l3.396-1.916c-1.232-0.329-2.662-0.513-4.193-0.517
	V90.727z"/>
<path fill="#EA774B" d="M57.627,73.901v4.779c0.305-0.092,0.546-1.119,0.546-2.389S57.932,73.993,57.627,73.901z"/>
</svg>
