<?xml version="1.0" encoding="utf-8"?>
<!-- Generator: Adobe Illustrator 16.0.0, SVG Export Plug-In . SVG Version: 6.00 Build 0)  -->
<!DOCTYPE svg PUBLIC "-//W3C//DTD SVG 1.1//EN" "http://www.w3.org/Graphics/SVG/1.1/DTD/svg11.dtd">
<svg version="1.1" id="Layer_1" xmlns="http://www.w3.org/2000/svg" xmlns:xlink="http://www.w3.org/1999/xlink" x="0px" y="0px"
	 width="115.167px" height="115.722px" viewBox="0 0 115.167 115.722" enable-background="new 0 0 115.167 115.722"
	 xml:space="preserve">
<g id="fox_2_">
	<g id="icon_14_">
		<g>
			<defs>
				<circle id="SVGID_1_" cx="57.583" cy="57.86" r="55.186"/>
			</defs>
			<use xlink:href="#SVGID_1_"  overflow="visible" fill="#005992"/>
			<clipPath id="SVGID_2_">
				<use xlink:href="#SVGID_1_"  overflow="visible"/>
			</clipPath>
			<g clip-path="url(#SVGID_2_)">
				<polygon fill="#9EA5C4" points="157.22,92.94 100.289,149.874 20.569,70.153 94.677,30.399 				"/>
			</g>
			<use xlink:href="#SVGID_1_"  overflow="visible" fill="none" stroke="#FFFFFF" stroke-width="2" stroke-miterlimit="10"/>
		</g>
	</g>
	<g id="fox_3_">
		<g>
			<g>
				<g>
					<g>
						<path fill="#EE7A4F" d="M29.192,57.47c-5.148-4.376-11.434-24.419-8.704-27.147c2.662-2.662,22.771,3.555,27.147,8.703
							C41.488,45.174,35.339,51.323,29.192,57.47z"/>
					</g>
					<g>
						<path fill="#C35429" d="M31.454,54.952c-3.254-2.766-7.225-15.431-5.5-17.155c1.682-1.683,14.389,2.247,17.154,5.5
							C39.223,47.182,35.338,51.067,31.454,54.952z"/>
					</g>
				</g>
				<g>
					<g>
						<path fill="#EE7A4F" d="M85.976,57.47c5.148-4.376,11.432-24.419,8.703-27.147c-2.662-2.662-22.771,3.555-27.147,8.703
							C73.68,45.174,79.829,51.323,85.976,57.47z"/>
					</g>
					<g>
						<path fill="#C35429" d="M83.714,54.952c3.252-2.766,7.225-15.431,5.5-17.155c-1.684-1.683-14.39,2.247-17.155,5.5
							C75.944,47.182,79.831,51.067,83.714,54.952z"/>
					</g>
				</g>
			</g>
			<g>
				<path fill="#EE7A4F" d="M94.621,69.954L65.516,87.913l-0.572,0.35l-0.17,0.102l-5.73,3.537c-0.896,0.553-2.027,0.553-2.924,0
					l-5.789-3.568l-0.109-0.07l-0.572-0.35L20.553,69.954c0,0,3.938-8.334,10.334-16.881c1.135-1.518,2.351-3.043,3.626-4.53
					c6.317-7.341,14.342-13.739,23.069-13.739c8.717,0,16.732,6.388,23.068,13.719c1.284,1.497,2.511,3.023,3.636,4.551
					C90.693,61.62,94.621,69.954,94.621,69.954z"/>
			</g>
			<g>
				<g>
					<g>
						<ellipse fill="#F1906D" cx="53.163" cy="70.239" rx="0.59" ry="2.408"/>
					</g>
					<g>
						<ellipse fill="#F1906D" cx="56.11" cy="70.239" rx="0.59" ry="2.408"/>
					</g>
					<g>
						<ellipse fill="#F1906D" cx="59.058" cy="70.239" rx="0.589" ry="2.408"/>
					</g>
					<g>
						<ellipse fill="#F1906D" cx="62.005" cy="70.239" rx="0.589" ry="2.408"/>
					</g>
				</g>
				<g>
					<g>
						<ellipse fill="#F1906D" cx="54.637" cy="76.292" rx="0.589" ry="2.406"/>
					</g>
					<g>
						<ellipse fill="#F1906D" cx="57.584" cy="76.292" rx="0.589" ry="2.406"/>
					</g>
					<g>
						<ellipse fill="#F1906D" cx="60.532" cy="76.292" rx="0.59" ry="2.406"/>
					</g>
				</g>
				<g>
					<g>
						<ellipse fill="#F1906D" cx="56.11" cy="82.018" rx="0.59" ry="2.408"/>
					</g>
					<g>
						<ellipse fill="#F1906D" cx="59.058" cy="82.018" rx="0.589" ry="2.408"/>
					</g>
				</g>
			</g>
			<g>
				<path fill="#494848" d="M64.944,88.262l-5.9,3.639c-0.896,0.553-2.027,0.553-2.924,0l-5.898-3.639
					c2.148-0.621,4.67-0.982,7.361-0.982S62.784,87.631,64.944,88.262z"/>
			</g>
			<g>
				<path fill="#747374" d="M61.821,88.598l-3.396,1.916c-0.517,0.291-1.168,0.291-1.684,0l-3.396-1.916
					c1.237-0.328,2.688-0.518,4.238-0.518C59.131,88.081,60.577,88.266,61.821,88.598z"/>
			</g>
			<g>
				<g>
					<path fill="#E9E1CA" d="M49.649,87.913L20.553,69.954c0,0,3.938-8.334,10.334-16.881c9.562,2.51,17.576,10.363,19.815,20.578
						C51.807,78.702,51.356,83.614,49.649,87.913z"/>
				</g>
				<g>
					<path fill="#E9E1CA" d="M94.621,69.954L65.516,87.913c-1.697-4.299-2.148-9.211-1.045-14.262
						c2.24-10.215,10.254-18.068,19.815-20.578C90.693,61.62,94.621,69.954,94.621,69.954z"/>
				</g>
			</g>
			<g>
				<g>
					<g>
						<circle fill="#494848" cx="44.891" cy="73.604" r="2.223"/>
					</g>
					<g>
						<circle fill="#FFFFFF" cx="44.249" cy="72.862" r="0.791"/>
					</g>
				</g>
				<g>
					<g>
						<circle fill="#494848" cx="70.284" cy="73.604" r="2.223"/>
					</g>
					<g>
						<circle fill="#FFFFFF" cx="69.641" cy="72.862" r="0.791"/>
					</g>
				</g>
			</g>
		</g>
		<g>
			<path fill="#FCD2AE" d="M94.679,30.323c-2.492-2.492-20.269,2.796-26.122,7.705c-3.455-1.988-7.125-3.213-10.93-3.223V92.28
				c0.492,0.002,0.98-0.109,1.416-0.379l5.9-3.639l0.572-0.35l29.104-17.959c0,0-2.912-6.17-7.801-13.333
				C91.777,50.969,97.261,32.904,94.679,30.323z"/>
		</g>
	</g>
</g>
</svg>
