<svg xmlns="http://www.w3.org/2000/svg" xmlns:xlink="http://www.w3.org/1999/xlink" version="1.1" id="Layer_1" x="0" y="0" width="230.83" height="46.39" viewBox="0 0 230.83 46.39" enable-background="new 0 0 230.833 46.389" xml:space="preserve">
  <path fill="#FFFFFF" d="M31.42 44.54c0.06 0-9.38 1.31-9.78-7.9 0 0-0.51-8.07-2-8.07 0.46 5.55 0.06 8.47 0.06 8.47s-0.63 7.67-8.53 7.67 -8.7-7.95-8.7-7.95 -1.77-11.39 0-26.66c0 0 0.4-9.15 8.7-9.04 6.98 0.12 9.73 6.35 9.27 16.25 0 0 17.4-9.73 19.05 13.79C39.49 31.1 40.52 42.94 31.42 44.54z"/>
  <path fill="#FFFFFF" d="M58.03 22.29c0.06 2.63-0.11 6.87 1.83 6.87 1.77 0 1.72-2.06 1.77-6.87 0.06-7.5 6.52-7.5 6.52-7.5 7.55-0.4 8.47 6.24 8.47 6.24 1.66 7.95-1.72 15.45-1.72 15.45s-3.26 9.04-14.48 8.75c-11.84-0.28-14.99-5.95-14.99-5.95 -4.69-6.87-2.23-18.08-2.23-18.08 1.72-7.61 8.7-6.35 8.7-6.35S57.86 15.25 58.03 22.29z"/>
  <path fill="#FFFFFF" d="M97.58 16.51c0 0 9.04-4.18 15.85 3.55 3.26 3.72 3.72 11.27 1.55 15.91 -2.57 5.55-6.98 7.15-6.98 7.15 -8.76 4.01-18.71 0.74-22.77-4.58 -6.81-8.93-3.15-28.84-3.15-28.84s1.26-9.9 9.15-9.21C101.01 1.4 97.58 16.51 97.58 16.51zM96.72 30.12c0.11 1.6 1.03 2.12 2.29 2.12s2.23-0.8 2.23-2.12c0-1.2-0.8-2.4-2.23-2.4C97.69 27.72 96.6 28.92 96.72 30.12z"/>
  <path fill="#FFFFFF" d="M135.34 16.51c0 0 9.04-4.18 15.85 3.55 3.26 3.72 3.72 11.27 1.55 15.91 -2.57 5.55-6.98 7.15-6.98 7.15 -8.76 4.01-18.71 0.74-22.77-4.58 -6.81-8.93-3.15-28.84-3.15-28.84s1.26-9.9 9.16-9.21C138.78 1.4 135.34 16.51 135.34 16.51zM134.49 30.12c0.12 1.6 1.03 2.12 2.29 2.12 1.26 0 2.23-0.8 2.23-2.12 0-1.2-0.8-2.4-2.23-2.4C135.46 27.72 134.37 28.92 134.49 30.12z"/>
  <path fill="#FFFFFF" d="M172.48 22.29c0.06 2.63-0.11 6.87 1.83 6.87 1.78 0 1.72-2.06 1.78-6.87 0.06-7.5 6.52-7.5 6.52-7.5 7.56-0.4 8.47 6.24 8.47 6.24 1.66 7.95-1.72 15.45-1.72 15.45s-3.26 9.04-14.48 8.75c-11.84-0.28-14.99-5.95-14.99-5.95 -4.69-6.87-2.23-18.08-2.23-18.08 1.72-7.61 8.7-6.35 8.7-6.35S172.31 15.25 172.48 22.29z"/>
  <path fill="#FFFFFF" d="M210.88 16.51c0 0 9.04-4.18 15.85 3.55 3.26 3.72 3.72 11.27 1.55 15.91 -2.57 5.55-6.98 7.15-6.98 7.15 -8.76 4.01-18.71 0.74-22.77-4.58 -6.81-8.93-3.15-28.84-3.15-28.84s1.26-9.9 9.16-9.21C214.31 1.4 210.88 16.51 210.88 16.51zM210.02 30.12c0.12 1.6 1.03 2.12 2.29 2.12 1.26 0 2.23-0.8 2.23-2.12 0-1.2-0.8-2.4-2.23-2.4C211 27.72 209.91 28.92 210.02 30.12z"/>
</svg>