<?xml version="1.0" encoding="utf-8"?>
<!-- Generator: Adobe Illustrator 16.0.0, SVG Export Plug-In . SVG Version: 6.00 Build 0)  -->
<!DOCTYPE svg PUBLIC "-//W3C//DTD SVG 1.1//EN" "http://www.w3.org/Graphics/SVG/1.1/DTD/svg11.dtd">
<svg version="1.1" id="Layer_1" xmlns="http://www.w3.org/2000/svg" xmlns:xlink="http://www.w3.org/1999/xlink" x="0px" y="0px"
	 width="115.167px" height="115.722px" viewBox="0 0 115.167 115.722" enable-background="new 0 0 115.167 115.722"
	 xml:space="preserve">
<g id="coala_1_">
	<g id="icon_16_">
		<g>
			<defs>
				<circle id="SVGID_1_" cx="57.584" cy="57.86" r="55.187"/>
			</defs>
			<use xlink:href="#SVGID_1_"  overflow="visible" fill="#F29107"/>
			<clipPath id="SVGID_2_">
				<use xlink:href="#SVGID_1_"  overflow="visible"/>
			</clipPath>
			<g clip-path="url(#SVGID_2_)">
				<polygon fill="#F9C6A1" points="151.548,98.028 98.75,150.827 30.379,82.458 95.3,41.78 				"/>
			</g>
			<use xlink:href="#SVGID_1_"  overflow="visible" fill="none" stroke="#FFFFFF" stroke-width="2" stroke-miterlimit="10"/>
		</g>
	</g>
	<g>
		<g>
			<g>
				<g>
					<circle fill="#939498" cx="30.533" cy="46.196" r="11.724"/>
				</g>
				<g>
					<circle fill="#B8BCC2" cx="32.097" cy="47.76" r="6.643"/>
				</g>
			</g>
			<g>
				<g>
					<circle fill="#939498" cx="84.634" cy="46.196" r="11.723"/>
				</g>
				<g>
					<circle fill="#B8BCC2" cx="83.071" cy="47.76" r="6.644"/>
				</g>
			</g>
		</g>
		<g>
			<path fill="#9A9CA0" d="M89.57,68.733c0,15.361-14.321,20.648-31.986,20.648s-31.986-5.287-31.986-20.648
				s14.321-34.979,31.986-34.979S89.57,53.372,89.57,68.733z"/>
		</g>
		<g>
			<g>
				<path fill="#494848" d="M63.405,74.059c0,1.729-2.606,4.422-5.821,4.422c-3.216,0-5.821-2.693-5.821-4.422
					s2.605-11.58,5.821-11.58C60.798,62.479,63.405,72.331,63.405,74.059z"/>
			</g>
			<g>
				<path fill="#626362" d="M61.388,72.674c0,1.037-1.704,3.168-3.805,3.168s-3.804-2.131-3.804-3.168
					c0-1.035,1.703-9.529,3.804-9.529S61.388,71.639,61.388,72.674z"/>
			</g>
			<g>
				<path fill="#494848" d="M57.583,82.542c-4.614,0-8.228-2.203-8.228-5.018c0-0.357,0.289-0.646,0.646-0.646
					s0.648,0.289,0.648,0.646c0,2.018,3.174,3.723,6.933,3.723s6.934-1.705,6.934-3.723c0-0.357,0.29-0.646,0.647-0.646
					s0.647,0.289,0.647,0.646C65.812,80.338,62.198,82.542,57.583,82.542z"/>
			</g>
			<g>
				<g>
					<g>
						<circle fill="#494848" cx="44.924" cy="65.631" r="2.637"/>
					</g>
					<g>
						<circle fill="#FFFFFF" cx="44.162" cy="64.752" r="0.938"/>
					</g>
				</g>
				<g>
					<g>
						<circle fill="#494848" cx="70.243" cy="65.631" r="2.637"/>
					</g>
					<g>
						<circle fill="#FFFFFF" cx="69.481" cy="64.752" r="0.938"/>
					</g>
				</g>
			</g>
		</g>
		<g>
			<path fill="#DEE6F1" d="M96.357,46.196c0-6.475-5.248-11.723-11.723-11.723c-4.24,0-7.945,2.26-10.004,5.633
				c-4.933-3.873-10.771-6.35-17.036-6.352v55.627C75.255,89.379,89.57,84.09,89.57,68.733c0-3.584-0.787-7.4-2.209-11.145
				C92.519,56.356,96.357,51.731,96.357,46.196z"/>
		</g>
	</g>
</g>
</svg>
