<?xml version="1.0" encoding="utf-8"?>
<!-- Generator: Adobe Illustrator 16.0.0, SVG Export Plug-In . SVG Version: 6.00 Build 0)  -->
<!DOCTYPE svg PUBLIC "-//W3C//DTD SVG 1.1//EN" "http://www.w3.org/Graphics/SVG/1.1/DTD/svg11.dtd">
<svg version="1.1" id="Layer_1" xmlns="http://www.w3.org/2000/svg" xmlns:xlink="http://www.w3.org/1999/xlink" x="0px" y="0px"
	 width="115.167px" height="115.722px" viewBox="0 0 115.167 115.722" enable-background="new 0 0 115.167 115.722"
	 xml:space="preserve">
<g id="icon_16_">
	<g>
		<defs>
			<circle id="SVGID_1_" cx="57.583" cy="57.86" r="55.187"/>
		</defs>
		<use xlink:href="#SVGID_1_"  overflow="visible" fill="#F29107"/>
		<clipPath id="SVGID_2_">
			<use xlink:href="#SVGID_1_"  overflow="visible"/>
		</clipPath>
		<g clip-path="url(#SVGID_2_)">
			<polygon fill="#E97310" points="151.548,98.028 98.749,150.827 30.379,82.458 95.3,41.78 			"/>
		</g>
		<use xlink:href="#SVGID_1_"  overflow="visible" fill="none" stroke="#FFFFFF" stroke-width="2" stroke-miterlimit="10"/>
	</g>
</g>
<g>
	<g>
		<g>
			<circle fill="#939498" cx="30.533" cy="46.196" r="11.724"/>
		</g>
		<g>
			<circle fill="#B8BCC2" cx="32.097" cy="47.76" r="6.643"/>
		</g>
	</g>
	<g>
		<g>
			<circle fill="#81878E" cx="84.634" cy="46.196" r="11.723"/>
		</g>
		<g>
			<circle fill="#A0AAB7" cx="83.071" cy="47.76" r="6.644"/>
		</g>
	</g>
</g>
<g>
	<path fill="#9A9CA0" d="M89.57,68.733c0,15.361-14.321,20.648-31.986,20.648s-31.986-5.287-31.986-20.648
		s14.321-34.979,31.986-34.979S89.57,53.372,89.57,68.733z"/>
</g>
<path fill="#878F96" d="M89.479,66.702c-0.02-0.256-0.037-0.511-0.064-0.768c-0.031-0.287-0.072-0.575-0.111-0.863
	c-0.024-0.18-0.045-0.358-0.073-0.538c-0.054-0.342-0.117-0.685-0.182-1.028c-0.023-0.122-0.044-0.244-0.069-0.367
	c-0.079-0.386-0.166-0.773-0.259-1.161c-0.019-0.076-0.036-0.153-0.055-0.229c-0.104-0.423-0.218-0.846-0.341-1.269
	c-0.011-0.039-0.021-0.077-0.033-0.116c-0.132-0.451-0.273-0.902-0.424-1.353c-0.003-0.009-0.006-0.017-0.008-0.025
	c-0.157-0.466-0.323-0.932-0.499-1.396h0c-2.506-6.608-7.003-12.987-12.731-17.482l0,0c-0.304-0.238-0.611-0.472-0.922-0.699
	c-0.016-0.012-0.031-0.022-0.047-0.034c-0.884-0.646-1.796-1.245-2.731-1.795c-0.118-0.069-0.237-0.138-0.355-0.205
	c-0.266-0.152-0.532-0.303-0.802-0.445c-0.131-0.07-0.265-0.135-0.396-0.202c-0.425-0.218-0.855-0.426-1.289-0.622
	c-0.215-0.097-0.431-0.193-0.647-0.285c-0.209-0.089-0.419-0.175-0.63-0.258c-0.29-0.114-0.581-0.223-0.874-0.326
	c-0.187-0.066-0.373-0.133-0.561-0.195c-0.379-0.125-0.76-0.242-1.144-0.35c-0.161-0.045-0.322-0.087-0.484-0.129
	c-0.336-0.088-0.675-0.168-1.015-0.242c-0.131-0.028-0.262-0.06-0.394-0.086c-0.461-0.092-0.925-0.172-1.393-0.237
	c-0.108-0.016-0.216-0.026-0.325-0.04c-0.385-0.049-0.773-0.089-1.162-0.12c-0.133-0.01-0.267-0.021-0.401-0.029
	c-0.486-0.03-0.973-0.05-1.464-0.051v55.627c0.301,0,0.598-0.006,0.896-0.009c0.248-0.002,0.497-0.002,0.743-0.007
	c0.338-0.007,0.672-0.019,1.008-0.029c0.205-0.007,0.412-0.011,0.616-0.019c0.358-0.014,0.713-0.034,1.068-0.054
	c0.177-0.009,0.356-0.016,0.532-0.026c0.356-0.021,0.708-0.05,1.061-0.076c0.171-0.014,0.345-0.023,0.515-0.038
	c0.465-0.039,0.925-0.084,1.383-0.132c0.054-0.006,0.109-0.01,0.162-0.016c0.351-0.038,0.696-0.083,1.042-0.126
	c0.159-0.021,0.32-0.037,0.479-0.059c0.352-0.047,0.698-0.102,1.044-0.154c0.146-0.022,0.295-0.042,0.44-0.065
	c0.408-0.066,0.81-0.139,1.209-0.214c0.08-0.015,0.163-0.027,0.242-0.043c0.345-0.066,0.683-0.14,1.021-0.212
	c0.132-0.029,0.267-0.054,0.398-0.083c0.33-0.074,0.652-0.156,0.976-0.236c0.133-0.033,0.271-0.063,0.403-0.098
	c0.328-0.085,0.647-0.178,0.968-0.271c0.123-0.035,0.25-0.067,0.371-0.104c0.305-0.091,0.602-0.189,0.9-0.287
	c0.132-0.043,0.267-0.083,0.397-0.127c0.306-0.104,0.604-0.217,0.901-0.328c0.117-0.043,0.237-0.083,0.353-0.128
	c0.256-0.099,0.504-0.206,0.755-0.312c0.151-0.062,0.306-0.122,0.454-0.187c0.222-0.098,0.435-0.202,0.651-0.304
	c0.169-0.08,0.343-0.155,0.509-0.238c0.196-0.097,0.384-0.202,0.576-0.303c0.178-0.095,0.361-0.186,0.535-0.283
	c0.147-0.082,0.287-0.172,0.432-0.257c0.21-0.123,0.424-0.244,0.628-0.374c0.115-0.072,0.224-0.151,0.337-0.227
	c0.224-0.148,0.451-0.294,0.667-0.449c0.113-0.08,0.218-0.167,0.329-0.25c0.209-0.156,0.42-0.311,0.622-0.474
	c0.073-0.06,0.141-0.124,0.213-0.185c0.23-0.192,0.459-0.385,0.678-0.586c0.083-0.076,0.158-0.157,0.239-0.234
	c0.201-0.192,0.403-0.385,0.593-0.585c0.07-0.074,0.134-0.153,0.203-0.229c0.193-0.21,0.386-0.42,0.567-0.639
	c0.078-0.095,0.148-0.195,0.224-0.292c0.163-0.207,0.329-0.412,0.482-0.627c0.102-0.143,0.192-0.293,0.29-0.438
	c0.118-0.177,0.24-0.35,0.351-0.531c0.085-0.14,0.16-0.287,0.241-0.43c0.112-0.197,0.228-0.391,0.332-0.593
	c0.038-0.074,0.069-0.152,0.106-0.227c0.138-0.278,0.274-0.559,0.397-0.849c0.043-0.103,0.079-0.211,0.12-0.314
	c0.107-0.269,0.216-0.536,0.311-0.814c0.004-0.011,0.006-0.021,0.01-0.033c0.258-0.76,0.469-1.556,0.628-2.388
	c0.033-0.17,0.054-0.348,0.082-0.521c0.183-1.117,0.287-2.291,0.287-3.538c0-0.462-0.015-0.929-0.04-1.398
	C89.518,67.125,89.496,66.913,89.479,66.702z"/>
<g>
	<g>
		<g>
			<circle fill="#494848" cx="44.924" cy="65.631" r="2.637"/>
		</g>
		<g>
			<circle fill="#FFFFFF" cx="44.162" cy="64.752" r="0.938"/>
		</g>
	</g>
	<g>
		<g>
			<circle fill="#404243" cx="70.243" cy="65.631" r="2.637"/>
		</g>
		<g>
			<circle fill="#FFFFFF" cx="69.481" cy="64.752" r="0.938"/>
		</g>
	</g>
</g>
<g>
	<path fill="#494848" d="M63.405,74.059c0,1.729-2.606,4.422-5.821,4.422c-3.216,0-5.821-2.693-5.821-4.422s2.605-11.58,5.821-11.58
		C60.798,62.479,63.405,72.331,63.405,74.059z"/>
</g>
<path fill="#404243" d="M57.594,78.48c3.21-0.006,5.811-2.694,5.811-4.421s-2.601-11.557-5.811-11.579V78.48z"/>
<g>
	<path fill="#626362" d="M61.388,72.674c0,1.037-1.704,3.168-3.805,3.168s-3.804-2.131-3.804-3.168c0-1.035,1.703-9.529,3.804-9.529
		S61.388,71.639,61.388,72.674z"/>
</g>
<path fill="#565C5E" d="M57.594,75.841c2.096-0.008,3.794-2.132,3.794-3.167c0-1.033-1.698-9.497-3.794-9.526V75.841z"/>
<g>
	<path fill="#494848" d="M57.583,82.542c-4.614,0-8.228-2.203-8.228-5.018c0-0.357,0.289-0.646,0.646-0.646s0.648,0.289,0.648,0.646
		c0,2.018,3.174,3.723,6.933,3.723s6.934-1.705,6.934-3.723c0-0.357,0.29-0.646,0.647-0.646s0.647,0.289,0.647,0.646
		C65.812,80.338,62.198,82.542,57.583,82.542z"/>
</g>
<path fill="#404243" d="M57.594,82.542c4.609-0.004,8.218-2.205,8.218-5.018c0-0.357-0.29-0.646-0.647-0.646
	s-0.647,0.289-0.647,0.646c0,2.016-3.169,3.719-6.923,3.723V82.542z"/>
</svg>
