<?xml version="1.0" encoding="utf-8"?>
<!-- Generator: Adobe Illustrator 16.0.0, SVG Export Plug-In . SVG Version: 6.00 Build 0)  -->
<!DOCTYPE svg PUBLIC "-//W3C//DTD SVG 1.1//EN" "http://www.w3.org/Graphics/SVG/1.1/DTD/svg11.dtd">
<svg version="1.1" id="Layer_1" xmlns="http://www.w3.org/2000/svg" xmlns:xlink="http://www.w3.org/1999/xlink" x="0px" y="0px"
	 width="79.83px" height="80.391px" viewBox="0 0 79.83 80.391" enable-background="new 0 0 79.83 80.391" xml:space="preserve">
<circle fill="#EDC621" cx="39.83" cy="40" r="38.58"/>
<path fill="#3D3D3B" d="M52.21,42.73v-2.46h-1.65v2.46c0,5.899-4.879,10.68-10.78,10.68l0,0c-5.9,0-10.68-4.78-10.68-10.68v-2.46
	h-1.64v2.46c0,6.21,4.6,11.29,10.57,12.149v4.57h-6.56c-1.42,0-2.56,1.15-2.56,2.56c0,1.421,1.15,2.561,2.56,2.561h16.72
	c1.41,0,2.56-1.14,2.56-2.561c0-1.409-1.149-2.56-2.56-2.56h-6.871V54.9C47.39,54.13,52.21,49,52.21,42.73z"/>
<path fill="#3D3D3B" d="M39.78,15.44c-4.99,0-9.04,4.05-9.04,9.04v14.14h18.18V24.48C48.92,19.49,44.771,15.44,39.78,15.44z
	 M43.13,18.77c0.46,0,0.83,0.37,0.83,0.819c0,0.45-0.37,0.83-0.83,0.83c-0.449,0-0.82-0.37-0.82-0.83S42.681,18.77,43.13,18.77z
	 M39.83,18.77c0.46,0,0.819,0.37,0.819,0.819c0,0.45-0.37,0.83-0.819,0.83c-0.46,0-0.82-0.37-0.82-0.83S39.37,18.77,39.83,18.77z
	 M36.53,18.77c0.46,0,0.83,0.37,0.83,0.819c0,0.45-0.37,0.83-0.82,0.83s-0.82-0.37-0.82-0.83S36.08,18.77,36.53,18.77z M33.23,36.91
	c-0.46,0-0.82-0.37-0.82-0.83c0-0.45,0.37-0.82,0.83-0.82c0.46,0,0.83,0.37,0.83,0.82C34.06,36.54,33.69,36.91,33.23,36.91z
	 M33.23,33.61c-0.46,0-0.82-0.37-0.82-0.82c0-0.46,0.37-0.83,0.83-0.83c0.46,0,0.83,0.37,0.83,0.83
	C34.06,33.24,33.69,33.61,33.23,33.61z M33.23,30.31c-0.46,0-0.82-0.37-0.82-0.82c0-0.46,0.37-0.82,0.83-0.82
	c0.46,0,0.83,0.37,0.83,0.82C34.06,29.94,33.69,30.31,33.23,30.31z M33.23,27.01c-0.46,0-0.82-0.369-0.82-0.829
	c0-0.45,0.37-0.82,0.83-0.82c0.46,0,0.83,0.37,0.83,0.82C34.06,26.65,33.69,27.01,33.23,27.01z M34.88,23.71
	c-0.46,0-0.82-0.37-0.82-0.83c0-0.449,0.37-0.819,0.83-0.819c0.45,0,0.82,0.37,0.82,0.819C35.71,23.35,35.34,23.71,34.88,23.71z
	 M36.53,36.91c-0.45,0-0.82-0.37-0.82-0.83c0-0.45,0.37-0.82,0.83-0.82s0.83,0.37,0.83,0.82C37.36,36.54,36.99,36.91,36.53,36.91z
	 M36.53,33.61c-0.45,0-0.82-0.37-0.82-0.82c0-0.46,0.37-0.83,0.83-0.83s0.83,0.37,0.83,0.83C37.36,33.24,36.99,33.61,36.53,33.61z
	 M36.53,30.31c-0.45,0-0.82-0.37-0.82-0.82c0-0.46,0.37-0.82,0.83-0.82s0.83,0.37,0.83,0.82C37.36,29.94,36.99,30.31,36.53,30.31z
	 M36.53,27.01c-0.45,0-0.82-0.369-0.82-0.829c0-0.45,0.37-0.82,0.83-0.82s0.83,0.37,0.83,0.82C37.36,26.65,36.99,27.01,36.53,27.01z
	 M38.18,23.71c-0.45,0-0.82-0.37-0.82-0.83c0-0.449,0.37-0.819,0.82-0.819c0.46,0,0.83,0.37,0.83,0.819
	C39.01,23.35,38.64,23.71,38.18,23.71z M39.83,36.91c-0.46,0-0.82-0.37-0.82-0.83c0-0.45,0.36-0.82,0.82-0.82s0.819,0.37,0.819,0.82
	C40.649,36.54,40.29,36.91,39.83,36.91z M39.83,33.61c-0.46,0-0.82-0.37-0.82-0.82c0-0.46,0.36-0.83,0.82-0.83
	s0.819,0.37,0.819,0.83C40.649,33.24,40.29,33.61,39.83,33.61z M39.83,30.31c-0.46,0-0.82-0.37-0.82-0.82
	c0-0.46,0.36-0.82,0.82-0.82s0.819,0.37,0.819,0.82S40.29,30.31,39.83,30.31z M39.83,27.01c-0.46,0-0.82-0.369-0.82-0.829
	c0-0.45,0.36-0.82,0.82-0.82s0.819,0.37,0.819,0.82C40.649,26.65,40.29,27.01,39.83,27.01z M41.479,23.71
	c-0.459,0-0.83-0.37-0.83-0.83c0-0.449,0.371-0.819,0.83-0.819c0.461,0,0.82,0.37,0.82,0.819C42.3,23.35,41.94,23.71,41.479,23.71z
	 M43.13,36.91c-0.449,0-0.82-0.37-0.82-0.83c0-0.45,0.371-0.82,0.82-0.82c0.46,0,0.83,0.37,0.83,0.82
	C43.96,36.54,43.58,36.91,43.13,36.91z M43.13,33.61c-0.449,0-0.82-0.37-0.82-0.82c0-0.46,0.371-0.83,0.82-0.83
	c0.46,0,0.83,0.37,0.83,0.83C43.96,33.24,43.58,33.61,43.13,33.61z M43.13,30.31c-0.449,0-0.82-0.37-0.82-0.82
	c0-0.46,0.371-0.82,0.82-0.82c0.46,0,0.83,0.37,0.83,0.82S43.58,30.31,43.13,30.31z M43.13,27.01c-0.449,0-0.82-0.369-0.82-0.829
	c0-0.45,0.371-0.82,0.82-0.82c0.46,0,0.83,0.37,0.83,0.82C43.96,26.65,43.58,27.01,43.13,27.01z M44.78,23.71
	c-0.45,0-0.82-0.37-0.82-0.83c0-0.449,0.37-0.819,0.82-0.819c0.449,0,0.83,0.37,0.83,0.819C45.61,23.35,45.229,23.71,44.78,23.71z
	 M46.431,36.91c-0.451,0-0.82-0.37-0.82-0.83c0-0.45,0.369-0.82,0.82-0.82c0.449,0,0.819,0.37,0.819,0.82
	C47.25,36.54,46.89,36.91,46.431,36.91z M46.431,33.61c-0.451,0-0.82-0.37-0.82-0.82c0-0.46,0.369-0.83,0.82-0.83
	c0.449,0,0.819,0.37,0.819,0.83C47.25,33.24,46.89,33.61,46.431,33.61z M46.431,30.31c-0.451,0-0.82-0.37-0.82-0.82
	c0-0.46,0.369-0.82,0.82-0.82c0.449,0,0.819,0.37,0.819,0.82S46.89,30.31,46.431,30.31z M46.431,27.01
	c-0.451,0-0.82-0.369-0.82-0.829c0-0.45,0.369-0.82,0.82-0.82c0.449,0,0.819,0.37,0.819,0.82C47.25,26.65,46.89,27.01,46.431,27.01z
	"/>
<path fill="#3D3D3B" d="M39.78,51.66c4.991,0,9.14-4.05,9.14-9.03V40.27H30.74v2.359C30.74,47.61,34.79,51.66,39.78,51.66z"/>
</svg>
