<svg xmlns="http://www.w3.org/2000/svg" xmlns:xlink="http://www.w3.org/1999/xlink" version="1.1" id="Layer_1" x="0" y="0" width="79.83" height="80.39" viewBox="0 0 79.83 80.39" enable-background="new 0 0 79.834 80.388" xml:space="preserve">
  <circle fill="#EDC621" cx="39.83" cy="40" r="38.58"/>
  <path fill-rule="evenodd" clip-rule="evenodd" fill="#3D3D3B" d="M52.21 42.73v-2.46h-1.65v2.46c0 5.9-4.88 10.68-10.78 10.68h0c-5.9 0-10.68-4.78-10.68-10.68v-2.46h-1.64v2.46c0 6.21 4.6 11.29 10.57 12.15v4.57h-6.56c-1.42 0-2.56 1.15-2.56 2.56 0 1.42 1.15 2.56 2.56 2.56h16.72c1.41 0 2.56-1.14 2.56-2.56 0-1.41-1.15-2.56-2.56-2.56h-6.87v-4.55C47.39 54.13 52.21 49 52.21 42.73z"/>
  <path fill="#3D3D3B" d="M39.78 15.44c-4.99 0-9.04 4.05-9.04 9.04V38.62h18.18V24.48C48.92 19.49 44.77 15.44 39.78 15.44zM43.13 18.77c0.46 0 0.83 0.37 0.83 0.82s-0.37 0.83-0.83 0.83c-0.45 0-0.82-0.37-0.82-0.83S42.68 18.77 43.13 18.77zM39.83 18.77c0.46 0 0.82 0.37 0.82 0.82s-0.37 0.83-0.82 0.83c-0.46 0-0.82-0.37-0.82-0.83S39.37 18.77 39.83 18.77zM36.53 18.77c0.46 0 0.83 0.37 0.83 0.82s-0.37 0.83-0.82 0.83c-0.45 0-0.82-0.37-0.82-0.83S36.08 18.77 36.53 18.77zM33.23 36.91c-0.46 0-0.82-0.37-0.82-0.83 0-0.45 0.37-0.82 0.83-0.82 0.46 0 0.83 0.37 0.83 0.82C34.06 36.54 33.69 36.91 33.23 36.91zM33.23 33.61c-0.46 0-0.82-0.37-0.82-0.82 0-0.46 0.37-0.83 0.83-0.83 0.46 0 0.83 0.37 0.83 0.83C34.06 33.24 33.69 33.61 33.23 33.61zM33.23 30.31c-0.46 0-0.82-0.37-0.82-0.82 0-0.46 0.37-0.82 0.83-0.82 0.46 0 0.83 0.37 0.83 0.82C34.06 29.94 33.69 30.31 33.23 30.31zM33.23 27.01c-0.46 0-0.82-0.37-0.82-0.83 0-0.45 0.37-0.82 0.83-0.82 0.46 0 0.83 0.37 0.83 0.82C34.06 26.65 33.69 27.01 33.23 27.01zM34.88 23.71c-0.46 0-0.82-0.37-0.82-0.83 0-0.45 0.37-0.82 0.83-0.82 0.45 0 0.82 0.37 0.82 0.82C35.71 23.35 35.34 23.71 34.88 23.71zM36.53 36.91c-0.45 0-0.82-0.37-0.82-0.83 0-0.45 0.37-0.82 0.83-0.82 0.46 0 0.83 0.37 0.83 0.82C37.36 36.54 36.99 36.91 36.53 36.91zM36.53 33.61c-0.45 0-0.82-0.37-0.82-0.82 0-0.46 0.37-0.83 0.83-0.83 0.46 0 0.83 0.37 0.83 0.83C37.36 33.24 36.99 33.61 36.53 33.61zM36.53 30.31c-0.45 0-0.82-0.37-0.82-0.82 0-0.46 0.37-0.82 0.83-0.82 0.46 0 0.83 0.37 0.83 0.82C37.36 29.94 36.99 30.31 36.53 30.31zM36.53 27.01c-0.45 0-0.82-0.37-0.82-0.83 0-0.45 0.37-0.82 0.83-0.82 0.46 0 0.83 0.37 0.83 0.82C37.36 26.65 36.99 27.01 36.53 27.01zM38.18 23.71c-0.45 0-0.82-0.37-0.82-0.83 0-0.45 0.37-0.82 0.82-0.82 0.46 0 0.83 0.37 0.83 0.82C39.01 23.35 38.64 23.71 38.18 23.71zM39.83 36.91c-0.46 0-0.82-0.37-0.82-0.83 0-0.45 0.36-0.82 0.82-0.82 0.46 0 0.82 0.37 0.82 0.82C40.65 36.54 40.29 36.91 39.83 36.91zM39.83 33.61c-0.46 0-0.82-0.37-0.82-0.82 0-0.46 0.36-0.83 0.82-0.83 0.46 0 0.82 0.37 0.82 0.83C40.65 33.24 40.29 33.61 39.83 33.61zM39.83 30.31c-0.46 0-0.82-0.37-0.82-0.82 0-0.46 0.36-0.82 0.82-0.82 0.46 0 0.82 0.37 0.82 0.82C40.65 29.94 40.29 30.31 39.83 30.31zM39.83 27.01c-0.46 0-0.82-0.37-0.82-0.83 0-0.45 0.36-0.82 0.82-0.82 0.46 0 0.82 0.37 0.82 0.82C40.65 26.65 40.29 27.01 39.83 27.01zM41.48 23.71c-0.46 0-0.83-0.37-0.83-0.83 0-0.45 0.37-0.82 0.83-0.82s0.82 0.37 0.82 0.82C42.3 23.35 41.94 23.71 41.48 23.71zM43.13 36.91c-0.45 0-0.82-0.37-0.82-0.83 0-0.45 0.37-0.82 0.82-0.82 0.46 0 0.83 0.37 0.83 0.82C43.96 36.54 43.58 36.91 43.13 36.91zM43.13 33.61c-0.45 0-0.82-0.37-0.82-0.82 0-0.46 0.37-0.83 0.82-0.83 0.46 0 0.83 0.37 0.83 0.83C43.96 33.24 43.58 33.61 43.13 33.61zM43.13 30.31c-0.45 0-0.82-0.37-0.82-0.82 0-0.46 0.37-0.82 0.82-0.82 0.46 0 0.83 0.37 0.83 0.82C43.96 29.94 43.58 30.31 43.13 30.31zM43.13 27.01c-0.45 0-0.82-0.37-0.82-0.83 0-0.45 0.37-0.82 0.82-0.82 0.46 0 0.83 0.37 0.83 0.82C43.96 26.65 43.58 27.01 43.13 27.01zM44.78 23.71c-0.45 0-0.82-0.37-0.82-0.83 0-0.45 0.37-0.82 0.82-0.82s0.83 0.37 0.83 0.82C45.61 23.35 45.23 23.71 44.78 23.71zM46.43 36.91c-0.45 0-0.82-0.37-0.82-0.83 0-0.45 0.37-0.82 0.82-0.82s0.82 0.37 0.82 0.82C47.25 36.54 46.89 36.91 46.43 36.91zM46.43 33.61c-0.45 0-0.82-0.37-0.82-0.82 0-0.46 0.37-0.83 0.82-0.83s0.82 0.37 0.82 0.83C47.25 33.24 46.89 33.61 46.43 33.61zM46.43 30.31c-0.45 0-0.82-0.37-0.82-0.82 0-0.46 0.37-0.82 0.82-0.82s0.82 0.37 0.82 0.82C47.25 29.94 46.89 30.31 46.43 30.31zM46.43 27.01c-0.45 0-0.82-0.37-0.82-0.83 0-0.45 0.37-0.82 0.82-0.82s0.82 0.37 0.82 0.82C47.25 26.65 46.89 27.01 46.43 27.01z"/>
  <path fill-rule="evenodd" clip-rule="evenodd" fill="#3D3D3B" d="M39.78 51.66c4.99 0 9.14-4.05 9.14-9.03v-2.36H30.74v2.36C30.74 47.61 34.79 51.66 39.78 51.66z"/>
</svg>