<?xml version="1.0" encoding="utf-8"?>
<!-- Generator: Adobe Illustrator 16.0.0, SVG Export Plug-In . SVG Version: 6.00 Build 0)  -->
<!DOCTYPE svg PUBLIC "-//W3C//DTD SVG 1.1//EN" "http://www.w3.org/Graphics/SVG/1.1/DTD/svg11.dtd">
<svg version="1.1" id="Layer_1" xmlns="http://www.w3.org/2000/svg" xmlns:xlink="http://www.w3.org/1999/xlink" x="0px" y="0px"
	 width="115.167px" height="115.722px" viewBox="0 0 115.167 115.722" enable-background="new 0 0 115.167 115.722"
	 xml:space="preserve">
<g id="icon_9_">
	<g>
		<defs>
			<circle id="SVGID_1_" cx="57.584" cy="57.861" r="55.019"/>
		</defs>
		<use xlink:href="#SVGID_1_"  overflow="visible" fill="#2FAC66"/>
		<clipPath id="SVGID_2_">
			<use xlink:href="#SVGID_1_"  overflow="visible"/>
		</clipPath>
		<g clip-path="url(#SVGID_2_)">
			<polygon fill="#00A15D" points="139.868,78.958 86.078,132.748 36.135,82.805 97.75,36.84 			"/>
		</g>
		<use xlink:href="#SVGID_1_"  overflow="visible" fill="none" stroke="#FFFFFF" stroke-width="3" stroke-miterlimit="10"/>
	</g>
</g>
<g>
	<g>
		<g>
			<circle fill="#E97F3D" cx="27.849" cy="46.114" r="14.028"/>
		</g>
		<g>
			<circle fill="#E9C598" cx="27.849" cy="46.114" r="10.755"/>
		</g>
	</g>
	<g>
		<g>
			<circle fill="#E5662B" cx="87.318" cy="46.114" r="14.028"/>
		</g>
		<g>
			<circle fill="#E49E60" cx="87.318" cy="46.114" r="10.755"/>
		</g>
	</g>
</g>
<g>
	<path fill="#E97F3D" d="M90.004,57.913c0-17.905-14.515-29.927-32.421-29.927c-17.905,0-32.42,12.021-32.42,29.927
		S39.678,91.58,57.583,91.58C75.489,91.58,90.004,75.818,90.004,57.913z"/>
</g>
<path fill="#E9C598" d="M69.237,43.693c-4.794,0-9.03,2.348-11.654,5.945c-2.624-3.598-6.859-5.945-11.653-5.945
	c-7.969,0-14.428,6.459-14.428,14.428c0,7.968,6.459,14.428,14.428,14.428c4.794,0,9.03-2.348,11.653-5.946
	c2.624,3.599,6.859,5.946,11.654,5.946c7.969,0,14.428-6.46,14.428-14.428C83.666,50.152,77.206,43.693,69.237,43.693z"/>
<path fill="#E5662B" d="M59.767,91.492c0.358-0.026,0.717-0.051,1.072-0.089c0.217-0.023,0.431-0.058,0.646-0.085
	c0.316-0.041,0.633-0.08,0.947-0.131c0.232-0.037,0.461-0.085,0.691-0.128c0.292-0.055,0.586-0.106,0.876-0.169
	c0.24-0.052,0.476-0.113,0.713-0.171c0.276-0.066,0.553-0.131,0.826-0.205c0.243-0.066,0.483-0.142,0.724-0.213
	c0.263-0.079,0.526-0.155,0.786-0.24c0.245-0.081,0.487-0.169,0.729-0.255c0.25-0.09,0.501-0.178,0.75-0.272
	c0.245-0.095,0.487-0.196,0.73-0.297c0.239-0.1,0.478-0.197,0.714-0.302c0.246-0.109,0.488-0.225,0.73-0.34
	c0.227-0.107,0.454-0.215,0.678-0.328c0.246-0.124,0.488-0.253,0.73-0.383c0.215-0.115,0.429-0.231,0.641-0.351
	c0.245-0.14,0.488-0.283,0.729-0.429c0.202-0.121,0.403-0.243,0.602-0.368c0.245-0.155,0.487-0.313,0.728-0.476
	c0.188-0.126,0.376-0.253,0.562-0.383c0.243-0.17,0.484-0.344,0.722-0.521c0.176-0.131,0.352-0.263,0.525-0.396
	c0.242-0.187,0.48-0.376,0.717-0.568c0.162-0.133,0.323-0.267,0.482-0.401c0.241-0.204,0.48-0.412,0.716-0.623
	c0.146-0.131,0.291-0.265,0.436-0.398c0.24-0.223,0.478-0.448,0.711-0.679c0.131-0.129,0.261-0.261,0.391-0.393
	c0.239-0.242,0.475-0.487,0.707-0.736c0.116-0.125,0.229-0.252,0.343-0.379c0.238-0.264,0.473-0.53,0.703-0.802
	c0.099-0.116,0.195-0.235,0.292-0.354c0.236-0.287,0.47-0.576,0.698-0.871c0.083-0.107,0.162-0.216,0.243-0.324
	c0.235-0.312,0.468-0.627,0.692-0.947c0.063-0.09,0.123-0.181,0.185-0.271c0.237-0.344,0.47-0.691,0.694-1.044
	c0.04-0.063,0.078-0.128,0.118-0.19c0.24-0.384,0.476-0.771,0.701-1.163c0.015-0.025,0.028-0.052,0.043-0.078
	c2.548-4.469,4.131-9.541,4.448-14.852c0,0,0,0,0,0c0.039-0.655,0.065-1.312,0.065-1.975c0-9.74-4.302-17.733-11.102-23.003
	c0,0,0,0,0,0c-2.467-1.912-5.264-3.464-8.304-4.612c-0.041-0.015-0.081-0.032-0.122-0.047c-0.347-0.129-0.699-0.25-1.053-0.369
	c-0.122-0.041-0.242-0.083-0.364-0.123c-0.312-0.102-0.629-0.196-0.947-0.289c-0.168-0.049-0.336-0.099-0.506-0.146
	c-0.291-0.081-0.585-0.156-0.879-0.229c-0.202-0.05-0.405-0.1-0.608-0.146c-0.275-0.063-0.551-0.124-0.829-0.182
	c-0.23-0.047-0.461-0.092-0.694-0.135c-0.261-0.048-0.522-0.096-0.785-0.139c-0.257-0.042-0.515-0.079-0.774-0.116
	c-0.246-0.035-0.492-0.071-0.741-0.102c-0.289-0.035-0.58-0.064-0.871-0.093c-0.224-0.022-0.447-0.047-0.672-0.065
	c-0.338-0.027-0.68-0.046-1.022-0.065c-0.184-0.01-0.367-0.024-0.552-0.032c-0.529-0.021-1.062-0.034-1.597-0.034
	c-0.12,0-0.235,0.014-0.355,0.014v63.57c0.119,0.002,0.236,0.01,0.355,0.01c0.549,0,1.095-0.016,1.638-0.045
	C59.405,91.525,59.585,91.504,59.767,91.492z"/>
<path fill="#E49E60" d="M69.237,43.693c-4.794,0-9.03,2.348-11.654,5.945c-0.11-0.151-0.239-0.286-0.355-0.433v17.829
	c0.116-0.146,0.245-0.281,0.355-0.433c2.624,3.599,6.859,5.946,11.654,5.946c7.969,0,14.428-6.46,14.428-14.428
	C83.666,50.152,77.206,43.693,69.237,43.693z"/>
<g>
	<circle fill="#E3A85B" cx="57.583" cy="74.071" r="12.677"/>
</g>
<g>
	<g>
		<g>
			<path fill="#FFFFFF" d="M69.883,54.802c-2.902,0.041-5.281,2.162-5.315,4.738c-0.012,0.93,0.291,1.785,0.808,2.505
				c1.211-0.673,2.752-1.089,4.427-1.113c1.674-0.022,3.205,0.349,4.399,0.988c0.537-0.735,0.862-1.6,0.874-2.528
				C75.109,56.816,72.785,54.761,69.883,54.802z"/>
		</g>
		<g>
			<defs>
				<path id="SVGID_3_" d="M69.883,54.802c-2.902,0.041-5.281,2.162-5.315,4.738c-0.012,0.93,0.291,1.785,0.808,2.505
					c1.211-0.673,2.752-1.089,4.427-1.113c1.674-0.022,3.205,0.349,4.399,0.988c0.537-0.735,0.862-1.6,0.874-2.528
					C75.109,56.816,72.785,54.761,69.883,54.802z"/>
			</defs>
			<use xlink:href="#SVGID_3_"  overflow="visible" fill="#FFFFFF"/>
			<clipPath id="SVGID_4_">
				<use xlink:href="#SVGID_3_"  overflow="visible"/>
			</clipPath>
			<g clip-path="url(#SVGID_4_)">
				<path fill="#56607B" d="M73.041,58.977c-0.025,1.914-1.484,3.484-3.259,3.51c-1.775,0.026-3.194-1.505-3.169-3.419
					c0.026-1.913,1.485-3.485,3.26-3.512C71.648,55.533,73.067,57.063,73.041,58.977z"/>
			</g>
			<g clip-path="url(#SVGID_4_)">
				<path fill="#FFFFFF" d="M69.604,57.161c-0.012,0.883-0.685,1.608-1.504,1.619c-0.819,0.013-1.474-0.694-1.462-1.577
					c0.012-0.884,0.685-1.608,1.504-1.62C68.961,55.571,69.616,56.277,69.604,57.161z"/>
			</g>
		</g>
	</g>
	<g>
		<g>
			<defs>
				<path id="SVGID_5_" d="M45.285,54.802c-2.902-0.041-5.227,2.014-5.192,4.59c0.012,0.929,0.337,1.793,0.874,2.528
					c1.195-0.64,2.726-1.011,4.399-0.988c1.674,0.024,3.215,0.44,4.427,1.113c0.517-0.72,0.82-1.575,0.808-2.505
					C50.566,56.964,48.186,54.843,45.285,54.802z"/>
			</defs>
			<use xlink:href="#SVGID_5_"  overflow="visible" fill="#FFFFFF"/>
			<clipPath id="SVGID_6_">
				<use xlink:href="#SVGID_5_"  overflow="visible"/>
			</clipPath>
			<g clip-path="url(#SVGID_6_)">
				<path fill="#4774B4" d="M48.554,59.068c0.026,1.914-1.393,3.445-3.168,3.419c-1.775-0.025-3.235-1.596-3.26-3.51
					c-0.025-1.914,1.394-3.444,3.168-3.421C47.07,55.583,48.529,57.155,48.554,59.068z"/>
			</g>
			<g clip-path="url(#SVGID_6_)">
				<path fill="#FFFFFF" d="M45.068,57.153c0.012,0.884-0.643,1.59-1.462,1.578c-0.819-0.012-1.492-0.736-1.504-1.62
					c-0.012-0.883,0.643-1.59,1.463-1.578C44.383,55.544,45.057,56.27,45.068,57.153z"/>
			</g>
		</g>
	</g>
</g>
<path fill="#DF873C" d="M57.229,61.412V86.73c0.119,0.003,0.235,0.018,0.355,0.018c7.001,0,12.677-5.675,12.677-12.677
	s-5.676-12.677-12.677-12.677C57.464,61.394,57.348,61.409,57.229,61.412z"/>
<g>
	<g>
		<circle fill="#9D562A" cx="52.752" cy="68.148" r="1.247"/>
	</g>
	<g>
		<circle fill="#9C4922" cx="62.416" cy="68.148" r="1.247"/>
	</g>
</g>
<g>
	<path fill="#9D562A" d="M57.363,79.295c-5.173,0-9.225-2.458-9.225-5.593c0-0.356,0.289-0.646,0.646-0.646s0.646,0.289,0.646,0.646
		c0,2.331,3.633,4.302,7.934,4.302c4.3,0,7.934-1.971,7.934-4.302c0-0.356,0.29-0.646,0.646-0.646c0.357,0,0.646,0.289,0.646,0.646
		C66.588,76.837,62.536,79.295,57.363,79.295z"/>
</g>
<path fill="#9C4922" d="M57.229,78v1.291c0.045,0,0.089,0.004,0.135,0.004c5.173,0,9.225-2.458,9.225-5.593
	c0-0.356-0.289-0.646-0.646-0.646c-0.356,0-0.646,0.289-0.646,0.646c0,2.331-3.633,4.302-7.934,4.302
	C57.318,78.004,57.274,78.001,57.229,78z"/>
</svg>
