<?xml version="1.0" encoding="utf-8"?>
<!-- Generator: Adobe Illustrator 16.0.0, SVG Export Plug-In . SVG Version: 6.00 Build 0)  -->
<!DOCTYPE svg PUBLIC "-//W3C//DTD SVG 1.1//EN" "http://www.w3.org/Graphics/SVG/1.1/DTD/svg11.dtd">
<svg version="1.1" id="Layer_1" xmlns="http://www.w3.org/2000/svg" xmlns:xlink="http://www.w3.org/1999/xlink" x="0px" y="0px"
	 width="115.167px" height="115.722px" viewBox="0 0 115.167 115.722" enable-background="new 0 0 115.167 115.722"
	 xml:space="preserve">
<g id="panda_2_">
	<g id="icon_12_">
		<g>
			<defs>
				<circle id="SVGID_1_" cx="57.583" cy="57.861" r="55.186"/>
			</defs>
			<use xlink:href="#SVGID_1_"  overflow="visible" fill="#8C7CA2"/>
			<clipPath id="SVGID_2_">
				<use xlink:href="#SVGID_1_"  overflow="visible"/>
			</clipPath>
			<g clip-path="url(#SVGID_2_)">
				<polygon fill="#A5A3C4" points="151.548,98.028 98.748,150.827 30.378,82.459 88.871,35.35 				"/>
			</g>
			<use xlink:href="#SVGID_1_"  overflow="visible" fill="none" stroke="#FFFFFF" stroke-width="2" stroke-miterlimit="10"/>
		</g>
	</g>
	<g id="panda_3_">
		<g>
			<g>
				<g>
					<g>
						<circle fill="#494848" cx="33.013" cy="41.79" r="9.271"/>
					</g>
					<g>
						<circle fill="#606060" cx="34.25" cy="43.026" r="5.254"/>
					</g>
				</g>
				<g>
					<g>
						<circle fill="#494848" cx="82.152" cy="41.79" r="9.271"/>
					</g>
					<g>
						<circle fill="#606060" cx="80.916" cy="43.026" r="5.254"/>
					</g>
				</g>
			</g>
			<g>
				<path fill="#E2DDD3" d="M89.57,69.835c0,15.361-14.32,19.547-31.986,19.547s-31.986-4.186-31.986-19.547
					s14.32-36.081,31.986-36.081S89.57,54.474,89.57,69.835z"/>
			</g>
			<g>
				<path fill="#F6F0E4" d="M57.583,80.903c-1.35,1.188-3.396,1.947-5.691,1.947c-0.5,0-0.986-0.037-1.457-0.105
					c0.418,1.951,3.457,3.467,7.148,3.467s6.73-1.516,7.148-3.467c-0.471,0.068-0.959,0.105-1.457,0.105
					C60.98,82.85,58.931,82.09,57.583,80.903z"/>
			</g>
			<g>
				<path fill="#494848" d="M63.275,83.583c-2.148,0-4.186-0.629-5.691-1.739c-1.506,1.11-3.543,1.739-5.691,1.739
					c-4.459,0-8.088-2.71-8.088-6.04c0-0.122,0.006-0.244,0.014-0.365c0.031-0.403,0.389-0.704,0.787-0.675
					c0.402,0.031,0.705,0.383,0.674,0.786c-0.006,0.084-0.01,0.169-0.01,0.254c0,2.522,2.971,4.575,6.623,4.575
					c2.037,0,3.934-0.644,5.207-1.764c0.277-0.244,0.691-0.244,0.969,0c1.271,1.12,3.17,1.764,5.207,1.764
					c3.65,0,6.621-2.053,6.621-4.575c0-0.405,0.328-0.732,0.732-0.732s0.732,0.327,0.732,0.732
					C71.361,80.873,67.734,83.583,63.275,83.583z"/>
			</g>
			<g>
				<path fill="#494848" d="M65.322,76.301c0,1.459-4.797,3.9-7.738,3.9c-2.725,0-7.738-2.441-7.738-3.9s3.465-2.642,7.738-2.642
					S65.322,74.842,65.322,76.301z"/>
			</g>
			<g>
				<g>
					
						<ellipse transform="matrix(0.7071 -0.7071 0.7071 0.7071 -26.752 69.981)" fill="#494848" cx="71.104" cy="67.285" rx="7.495" ry="11.856"/>
				</g>
				<g>
					
						<ellipse transform="matrix(-0.7071 -0.7071 0.7071 -0.7071 27.6371 146.0187)" fill="#494848" cx="44.062" cy="67.285" rx="7.494" ry="11.855"/>
				</g>
			</g>
			<g>
				<g>
					<g>
						<circle fill="#FFFFFF" cx="47.732" cy="68.331" r="2.053"/>
					</g>
					<g>
						<circle fill="#494848" cx="47.732" cy="68.331" r="1.125"/>
					</g>
				</g>
				<g>
					<g>
						<circle fill="#FFFFFF" cx="67.435" cy="68.331" r="2.053"/>
					</g>
					<g>
						<circle fill="#494848" cx="67.435" cy="68.331" r="1.125"/>
					</g>
				</g>
			</g>
		</g>
		<g>
			<path fill="#F0E9DE" d="M91.423,41.79c0-5.121-4.15-9.271-9.271-9.271c-4.266,0-7.85,2.885-8.93,6.807
				c-4.625-3.42-9.957-5.57-15.639-5.57v55.628c17.666,0,31.986-4.186,31.986-19.547c0-6.005-2.195-12.823-5.916-18.907
				C88.058,50.209,91.423,46.397,91.423,41.79z"/>
		</g>
	</g>
</g>
</svg>
