<?xml version="1.0" encoding="utf-8"?>
<svg xmlns="http://www.w3.org/2000/svg" xmlns:xlink="http://www.w3.org/1999/xlink" version="1.1" id="Layer_1" x="0" y="0" width="47.17" height="48.06" viewBox="0 0 47.17 48.06" enable-background="new 0 0 47.167 48.055" xml:space="preserve">
  <path fill="#FFFFFF" d="M28.68 29.03v4.59c0 9.28 0 12.85-5 12.85 -2.35 0-4.28-0.92-4.79-6.43 -0.31-3.98-0.41-5.92-0.41-10.91 -13.77 0-17.34 0-17.34-5 0-2.35 0.92-4.28 6.43-4.79 3.98-0.31 5.92-0.41 10.91-0.41 0.1-3.47 0.21-6.94 0.41-10.51 0.41-6.43 2.14-6.83 4.8-6.83 2.45 0 4.18 1.23 4.49 6.73 0.1 3.06 0.31 6.63 0.41 10.71 3.47 0 6.94 0.1 10.61 0.31 6.43 0.41 6.84 2.14 6.84 4.79 0 2.45-1.23 4.18-6.73 4.49C36.23 28.82 32.76 28.92 28.68 29.03z"/>
</svg>