<?xml version="1.0" encoding="utf-8"?>
<!-- Generator: Adobe Illustrator 16.0.0, SVG Export Plug-In . SVG Version: 6.00 Build 0)  -->
<!DOCTYPE svg PUBLIC "-//W3C//DTD SVG 1.1//EN" "http://www.w3.org/Graphics/SVG/1.1/DTD/svg11.dtd">
<svg version="1.1" id="Layer_1" xmlns="http://www.w3.org/2000/svg" xmlns:xlink="http://www.w3.org/1999/xlink" x="0px" y="0px"
	 width="115.167px" height="115.722px" viewBox="0 0 115.167 115.722" enable-background="new 0 0 115.167 115.722"
	 xml:space="preserve">
<g id="raccoon_2_">
	<g id="icon_15_">
		<g>
			<defs>
				<circle id="SVGID_1_" cx="57.584" cy="57.86" r="55.186"/>
			</defs>
			<use xlink:href="#SVGID_1_"  overflow="visible" fill="#E73440"/>
			<clipPath id="SVGID_2_">
				<use xlink:href="#SVGID_1_"  overflow="visible"/>
			</clipPath>
			<g clip-path="url(#SVGID_2_)">
				<polygon fill="#E73D3D" points="153.969,95.606 98.922,150.655 19.883,71.614 95.885,37.521 				"/>
			</g>
			<use xlink:href="#SVGID_1_"  overflow="visible" fill="none" stroke="#FFFFFF" stroke-width="2" stroke-miterlimit="10"/>
		</g>
	</g>
	<g id="raccoon_3_">
		<g>
			<g>
				<g>
					<path fill="#C7DAF1" d="M29.66,61.885c-3.672-4.313-12.114-21.005-10.319-24.267c1.562-2.839,12.317-1.341,20.355,2.489
						c4.611,2.197,8.325,4.601,11.097,6.724C43.749,51.85,36.705,56.868,29.66,61.885z"/>
				</g>
				<g>
					<path fill="#98B5DF" d="M31.134,60.836c-3.313-4.708-7.72-15.027-7.161-17.117c1.642-1.08,9.037-0.506,15.286,2.229
						c2.583,1.129,5.063,2.464,7.282,3.913L31.134,60.836z"/>
				</g>
			</g>
			<g>
				<g>
					<path fill="#C7DAF1" d="M85.506,61.885c3.672-4.313,12.115-21.005,10.318-24.267c-1.561-2.839-12.316-1.341-20.355,2.489
						c-4.611,2.197-8.325,4.601-11.097,6.724C71.417,51.85,78.461,56.868,85.506,61.885z"/>
				</g>
				<g>
					<path fill="#98B5DF" d="M84.032,60.836c3.314-4.708,7.721-15.027,7.162-17.117c-1.643-1.08-9.037-0.506-15.287,2.229
						c-2.583,1.129-5.063,2.464-7.281,3.913L84.032,60.836z"/>
				</g>
			</g>
			<g>
				<path fill="#C7DAF1" d="M95.299,71.317c0,0-16.879,17.977-37.7,17.977c-20.82,0-37.699-17.977-37.699-17.977
					S36.779,40.122,57.6,40.122C78.42,40.122,95.299,71.317,95.299,71.317z"/>
			</g>
			<g>
				<g>
					<path fill="#7B9AC5" d="M52.48,57.486c-10.844,2.729-19.618,13.269-22.781,17.505c-0.747,1.002-0.532,2.41,0.467,3.162
						c3.812,2.865,13.516,9.256,25.129,10.031V59.688C55.295,58.216,53.908,57.126,52.48,57.486z"/>
				</g>
				<g>
					<path fill="#7B9AC5" d="M59.904,88.184c11.613-0.775,21.317-7.166,25.129-10.031c0.998-0.752,1.213-2.16,0.467-3.162
						c-3.164-4.236-11.938-14.775-22.782-17.505c-1.428-0.359-2.814,0.73-2.814,2.202V88.184z"/>
				</g>
			</g>
			<g>
				<path fill="#FFFFFF" d="M72.434,82.071c0,0-6.642,6.342-14.834,6.342s-14.834-6.342-14.834-6.342S49.407,71.069,57.6,71.069
					S72.434,82.071,72.434,82.071z"/>
			</g>
			<g>
				<path fill="#494848" d="M63.421,80.206c0,1.475-2.606,2.668-5.821,2.668s-5.821-1.193-5.821-2.668
					c0-1.473,2.606-4.365,5.821-4.365S63.421,78.733,63.421,80.206z"/>
			</g>
			<g>
				<path fill="#626362" d="M61.403,79.026c0,0.883-1.703,1.6-3.804,1.6s-3.804-0.717-3.804-1.6c0-0.885,1.703-2.619,3.804-2.619
					S61.403,78.141,61.403,79.026z"/>
			</g>
			<g>
				<path fill="#494848" d="M57.6,86.936c-4.614,0-8.229-2.203-8.229-5.018c0-0.357,0.29-0.648,0.647-0.648s0.647,0.291,0.647,0.648
					c0,2.018,3.175,3.723,6.934,3.723s6.934-1.705,6.934-3.723c0-0.357,0.29-0.648,0.647-0.648s0.647,0.291,0.647,0.648
					C65.828,84.733,62.214,86.936,57.6,86.936z"/>
			</g>
			<g>
				<g>
					<g>
						<circle fill="#494848" cx="46.536" cy="69.368" r="2.305"/>
					</g>
					<g>
						<circle fill="#FFFFFF" cx="45.87" cy="68.6" r="0.819"/>
					</g>
				</g>
				<g>
					<g>
						<circle fill="#494848" cx="68.664" cy="69.368" r="2.305"/>
					</g>
					<g>
						<circle fill="#FFFFFF" cx="67.998" cy="68.6" r="0.82"/>
					</g>
				</g>
			</g>
		</g>
		<g>
			<path fill="#D5E0F1" d="M95.825,37.619c-1.561-2.839-12.316-1.341-20.355,2.489c-2.21,1.054-4.208,2.154-6.001,3.248
				c-3.733-1.983-7.721-3.234-11.869-3.234c-0.013,0-0.025,0.001-0.039,0.001v49.171c0.014,0,0.026,0,0.039,0
				c20.821,0,37.7-17.977,37.7-17.977s-2.994-5.521-8.004-11.916C91.35,53.141,97.368,40.422,95.825,37.619z"/>
		</g>
	</g>
</g>
</svg>
