<?xml version="1.0" encoding="utf-8"?>
<!-- Generator: Adobe Illustrator 16.0.0, SVG Export Plug-In . SVG Version: 6.00 Build 0)  -->
<!DOCTYPE svg PUBLIC "-//W3C//DTD SVG 1.1//EN" "http://www.w3.org/Graphics/SVG/1.1/DTD/svg11.dtd">
<svg version="1.1" id="Layer_1" xmlns="http://www.w3.org/2000/svg" xmlns:xlink="http://www.w3.org/1999/xlink" x="0px" y="0px"
	 width="115.167px" height="115.722px" viewBox="0 0 115.167 115.722" enable-background="new 0 0 115.167 115.722"
	 xml:space="preserve">
<g id="icon_15_">
	<g>
		<defs>
			<circle id="SVGID_1_" cx="57.584" cy="57.86" r="55.186"/>
		</defs>
		<use xlink:href="#SVGID_1_"  overflow="visible" fill="#E73440"/>
		<clipPath id="SVGID_2_">
			<use xlink:href="#SVGID_1_"  overflow="visible"/>
		</clipPath>
		<g clip-path="url(#SVGID_2_)">
			<polygon fill="#E01521" points="153.969,95.606 98.922,150.655 19.883,71.614 95.885,37.522 			"/>
		</g>
		<use xlink:href="#SVGID_1_"  overflow="visible" fill="none" stroke="#FFFFFF" stroke-width="2" stroke-miterlimit="10"/>
	</g>
</g>
<g>
	<g>
		<path fill="#C7DAF1" d="M29.661,61.885c-3.672-4.312-12.114-21.004-10.319-24.266c1.562-2.84,12.317-1.342,20.355,2.488
			c4.611,2.197,8.325,4.602,11.097,6.725C43.75,51.85,36.706,56.868,29.661,61.885z"/>
	</g>
	<g>
		<path fill="#98B5DF" d="M31.134,60.836c-3.313-4.707-7.72-15.027-7.161-17.117c1.642-1.08,9.037-0.506,15.286,2.229
			c2.583,1.129,5.063,2.465,7.282,3.914L31.134,60.836z"/>
	</g>
</g>
<g>
	<path fill="#C7DAF1" d="M95.299,71.317c0,0-16.879,17.977-37.699,17.977S19.901,71.317,19.901,71.317S36.78,40.122,57.6,40.122
		S95.299,71.317,95.299,71.317z"/>
</g>
<g>
	<g>
		<path fill="#A3BFDF" d="M85.506,61.885c3.672-4.312,12.115-21.004,10.319-24.266c-1.562-2.84-12.317-1.342-20.355,2.488
			c-4.611,2.197-8.325,4.602-11.097,6.725C71.417,51.85,78.461,56.868,85.506,61.885z"/>
	</g>
	<g>
		<path fill="#7AA2D2" d="M84.033,60.836c3.313-4.707,7.72-15.027,7.161-17.117c-1.642-1.08-9.037-0.506-15.286,2.229
			c-2.583,1.129-5.063,2.465-7.281,3.914L84.033,60.836z"/>
	</g>
</g>
<path fill="#A3BFDF" d="M95.189,71.119c-0.011-0.02-0.022-0.039-0.035-0.062c-0.043-0.076-0.096-0.171-0.159-0.28
	c-0.003-0.006-0.006-0.012-0.01-0.018c-0.888-1.555-3.625-6.168-7.69-11.357l0,0c-4.529-5.782-10.709-12.266-17.835-16.049
	c-0.442-0.235-0.889-0.458-1.339-0.672c-0.055-0.026-0.11-0.051-0.166-0.077c-1.234-0.577-2.496-1.063-3.779-1.454
	c-0.188-0.057-0.375-0.12-0.564-0.173c-0.287-0.08-0.576-0.146-0.865-0.216c-0.3-0.071-0.601-0.141-0.903-0.201
	c-0.252-0.05-0.506-0.096-0.76-0.138c-0.367-0.06-0.736-0.108-1.107-0.15c-0.206-0.023-0.411-0.051-0.618-0.068
	c-0.584-0.049-1.171-0.081-1.762-0.081c-0.013,0-0.025,0.002-0.039,0.002v49.169c0.013,0,0.026,0.001,0.039,0.001
	c20.82,0,37.699-17.977,37.699-17.977s-0.019-0.033-0.037-0.067C95.246,71.219,95.217,71.168,95.189,71.119z"/>
<g>
	<g>
		<path fill="#7B9AC5" d="M52.481,57.487C41.637,60.215,32.863,70.754,29.7,74.991c-0.747,1.002-0.532,2.41,0.467,3.162
			c3.812,2.865,13.516,9.256,25.129,10.031V59.688C55.295,58.217,53.909,57.127,52.481,57.487z"/>
	</g>
	<g>
		<path fill="#628AB9" d="M59.905,88.184c11.613-0.775,21.317-7.166,25.129-10.031c0.999-0.752,1.214-2.16,0.467-3.162
			c-3.163-4.236-11.938-14.775-22.781-17.504c-1.428-0.359-2.814,0.73-2.814,2.201V88.184z"/>
	</g>
</g>
<g>
	<path fill="#FFFFFF" d="M72.434,82.071c0,0-6.642,6.342-14.834,6.342s-14.834-6.342-14.834-6.342S49.408,71.069,57.6,71.069
		S72.434,82.071,72.434,82.071z"/>
</g>
<g>
	<g>
		<g>
			<circle fill="#494848" cx="46.536" cy="69.368" r="2.305"/>
		</g>
		<g>
			<circle fill="#FFFFFF" cx="45.871" cy="68.6" r="0.819"/>
		</g>
	</g>
	<g>
		<g>
			<circle fill="#3E4043" cx="68.664" cy="69.368" r="2.305"/>
		</g>
		<g>
			<circle fill="#FFFFFF" cx="67.998" cy="68.6" r="0.82"/>
		</g>
	</g>
</g>
<g>
	<path fill="#494848" d="M63.421,80.206c0,1.475-2.606,2.668-5.821,2.668s-5.821-1.193-5.821-2.668c0-1.473,2.606-4.365,5.821-4.365
		S63.421,78.733,63.421,80.206z"/>
</g>
<path fill="#3E4043" d="M57.561,75.842v7.03c0.013,0,0.026,0.001,0.039,0.001c3.215,0,5.821-1.193,5.821-2.668
	c0-1.473-2.606-4.365-5.821-4.365C57.587,75.84,57.574,75.842,57.561,75.842z"/>
<g>
	<path fill="#626362" d="M61.404,79.026c0,0.883-1.703,1.6-3.804,1.6s-3.804-0.717-3.804-1.6c0-0.885,1.703-2.619,3.804-2.619
		S61.404,78.141,61.404,79.026z"/>
</g>
<path fill="#535A5E" d="M57.561,76.411v4.213c0.013,0,0.026,0.002,0.039,0.002c2.101,0,3.804-0.717,3.804-1.6
	c0-0.885-1.703-2.619-3.804-2.619C57.587,76.407,57.574,76.411,57.561,76.411z"/>
<g>
	<path fill="#494848" d="M57.6,86.936c-4.614,0-8.229-2.203-8.229-5.018c0-0.357,0.29-0.648,0.647-0.648s0.647,0.291,0.647,0.648
		c0,2.018,3.175,3.723,6.934,3.723s6.934-1.705,6.934-3.723c0-0.357,0.29-0.648,0.647-0.648s0.647,0.291,0.647,0.648
		C65.829,84.733,62.214,86.936,57.6,86.936z"/>
</g>
<path fill="#3E4043" d="M57.561,85.64v1.295c0.013,0,0.026,0.001,0.039,0.001c4.614,0,8.229-2.203,8.229-5.018
	c0-0.357-0.29-0.648-0.647-0.648s-0.647,0.291-0.647,0.648c0,2.018-3.175,3.723-6.934,3.723
	C57.587,85.641,57.574,85.64,57.561,85.64z"/>
</svg>
