<?xml version="1.0" encoding="utf-8"?>
<!-- Generator: Adobe Illustrator 16.0.0, SVG Export Plug-In . SVG Version: 6.00 Build 0)  -->
<!DOCTYPE svg PUBLIC "-//W3C//DTD SVG 1.1//EN" "http://www.w3.org/Graphics/SVG/1.1/DTD/svg11.dtd">
<svg version="1.1" id="Layer_1" xmlns="http://www.w3.org/2000/svg" xmlns:xlink="http://www.w3.org/1999/xlink" x="0px" y="0px"
	 width="115.167px" height="115.722px" viewBox="0 0 115.167 115.722" enable-background="new 0 0 115.167 115.722"
	 xml:space="preserve">
<g id="dog_2_">
	<g id="icon_11_">
		<g>
			<defs>
				<circle id="SVGID_1_" cx="57.584" cy="57.861" r="55.187"/>
			</defs>
			<use xlink:href="#SVGID_1_"  overflow="visible" fill="#80BA2C"/>
			<clipPath id="SVGID_2_">
				<use xlink:href="#SVGID_1_"  overflow="visible"/>
			</clipPath>
			<g clip-path="url(#SVGID_2_)">
				<polygon fill="#B5C8E8" points="157.222,92.941 99.443,150.719 22.743,74.02 93.523,29.243 				"/>
			</g>
			<use xlink:href="#SVGID_1_"  overflow="visible" fill="none" stroke="#FFFFFF" stroke-width="2" stroke-miterlimit="10"/>
		</g>
	</g>
	<g id="dog_3_">
		<g>
			<g>
				<g>
					<path fill="#6D7C82" d="M30.03,57.578c-4.546-4.389-10.674-25.258-8.476-28.221c1.913-2.578,12.274,0.328,19.655,5.163
						c4.234,2.774,7.561,5.629,9.998,8.084C43.621,46.589,37.618,53.591,30.03,57.578z"/>
				</g>
				<g>
					<path fill="#CAD2D4" d="M31.676,56.712C25.731,48.824,23.122,34.58,24,32.24c1.986-0.944,10.294,1.175,17.049,5.601
						c2.792,1.828,5.443,3.878,7.785,6.01L31.676,56.712z"/>
				</g>
			</g>
			<g>
				<g>
					<path fill="#6D7C82" d="M85.136,57.578c4.547-4.389,10.674-25.258,8.477-28.221c-1.912-2.578-12.276,0.328-19.657,5.163
						c-4.234,2.774-7.559,5.629-9.998,8.084C71.545,46.589,77.549,53.591,85.136,57.578z"/>
				</g>
				<g>
					<path fill="#CAD2D4" d="M83.49,56.712c5.945-7.889,8.555-22.133,7.676-24.473c-1.984-0.944-10.294,1.175-17.05,5.601
						c-2.791,1.828-5.443,3.878-7.785,6.01L83.49,56.712z"/>
				</g>
			</g>
			<g>
				<path fill="#6D7C82" d="M92.476,74.024c-0.131,0-0.27,0-0.4,0.01c-15.675,0.244-22.874,12.549-32.759,14.143
					c-0.559,0.097-1.133,0.141-1.709,0.141c-0.566,0-1.141-0.053-1.708-0.148C46.233,86.52,36.261,74.33,23.143,74.034
					c-0.131-0.01-0.271-0.01-0.401-0.01c0-2.396,12.552-30.446,18.602-36.025h32.53C79.924,43.578,92.476,73.083,92.476,74.024z"/>
			</g>
			<g>
				<path fill="#CAD2D4" d="M77.52,67.651c1.139-1.791,1.809-3.91,1.809-6.19c0-6.387-5.178-11.564-11.564-11.564
					c-4.383,0-8.193,2.438-10.156,6.029c-1.961-3.592-5.772-6.029-10.154-6.029c-6.387,0-11.564,5.178-11.564,11.564
					c0,2.28,0.669,4.399,1.808,6.19c-5.702,0.155-10.846,2.564-14.554,6.383C36.261,74.33,46.233,86.52,55.9,88.168
					c0.567,0.096,1.142,0.148,1.708,0.148c0.576,0,1.15-0.044,1.709-0.141c9.885-1.594,17.084-13.898,32.759-14.143
					C88.367,70.215,83.224,67.806,77.52,67.651z"/>
			</g>
			<g>
				<g>
					<path fill="#F5B9BE" d="M58.133,92.624H57.17c-2.612,0-4.73-2.119-4.73-4.731v-8.409h10.426v8.409
						C62.866,90.504,60.747,92.624,58.133,92.624z"/>
				</g>
				<g>
					<path fill="#EF8790" d="M57.653,91.702c-0.459,0-0.831-0.371-0.831-0.83V79.833c0-0.459,0.372-0.83,0.831-0.83
						s0.83,0.371,0.83,0.83v11.039C58.483,91.331,58.112,91.702,57.653,91.702z"/>
				</g>
				<g>
					<g>
						<ellipse fill="#E6F0F4" cx="53.034" cy="77.993" rx="5.912" ry="4.267"/>
					</g>
					<g>
						<ellipse fill="#E6F0F4" cx="62.184" cy="77.993" rx="5.913" ry="4.267"/>
					</g>
				</g>
				<g>
					<path fill="#494848" d="M63.829,74.051c0,1.016-3.855,2.715-6.221,2.715c-2.189,0-6.219-1.699-6.219-2.715
						s2.784-1.84,6.219-1.84C61.043,72.211,63.829,73.036,63.829,74.051z"/>
				</g>
				<g>
					<path fill="#B4B4B2" d="M60.706,73.579c0,0.474-1.92,1.266-3.098,1.266c-1.09,0-3.096-0.792-3.096-1.266
						s1.387-0.857,3.096-0.857C59.319,72.721,60.706,73.105,60.706,73.579z"/>
				</g>
			</g>
			<g>
				<g>
					<g>
						<defs>
							<path id="SVGID_3_" d="M67.868,61.084c-2.52,0.481-4.264,2.692-3.898,4.939c0.131,0.811,0.525,1.508,1.088,2.055
								c0.951-0.771,2.227-1.369,3.68-1.646c1.453-0.278,2.842-0.189,3.98,0.184c0.354-0.721,0.504-1.523,0.373-2.334
								C72.723,62.035,70.385,60.603,67.868,61.084z"/>
						</defs>
						<use xlink:href="#SVGID_3_"  overflow="visible" fill="#448CCB"/>
						<clipPath id="SVGID_4_">
							<use xlink:href="#SVGID_3_"  overflow="visible"/>
						</clipPath>
						<g clip-path="url(#SVGID_4_)">
							<path fill="#494848" d="M71.256,64.233c0.271,1.669-0.758,3.26-2.299,3.555s-3.01-0.82-3.281-2.489s0.758-3.261,2.299-3.555
								C69.514,61.449,70.985,62.564,71.256,64.233z"/>
						</g>
						<g clip-path="url(#SVGID_4_)">
							<path fill="#FFFFFF" d="M67.987,63.179c0.125,0.771-0.35,1.505-1.061,1.641s-1.389-0.378-1.516-1.149
								c-0.125-0.77,0.35-1.505,1.061-1.64C67.184,61.894,67.862,62.409,67.987,63.179z"/>
						</g>
					</g>
				</g>
				<g>
					<g>
						<defs>
							<path id="SVGID_5_" d="M47.35,61.084c-2.519-0.481-4.857,0.95-5.223,3.197c-0.132,0.811,0.019,1.613,0.373,2.334
								c1.137-0.373,2.525-0.462,3.979-0.184c1.453,0.277,2.729,0.875,3.681,1.646c0.561-0.547,0.956-1.244,1.088-2.055
								C51.614,63.777,49.869,61.566,47.35,61.084z"/>
						</defs>
						<use xlink:href="#SVGID_5_"  overflow="visible" fill="#448CCB"/>
						<clipPath id="SVGID_6_">
							<use xlink:href="#SVGID_5_"  overflow="visible"/>
						</clipPath>
						<g clip-path="url(#SVGID_6_)">
							<path fill="#494848" d="M49.542,65.298c-0.272,1.669-1.742,2.784-3.283,2.489c-1.54-0.295-2.568-1.886-2.297-3.555
								s1.74-2.784,3.281-2.489C48.784,62.038,49.813,63.629,49.542,65.298z"/>
						</g>
						<g clip-path="url(#SVGID_6_)">
							<path fill="#FFFFFF" d="M46.801,63.097c-0.125,0.771-0.804,1.284-1.515,1.149c-0.712-0.137-1.187-0.871-1.061-1.642
								c0.126-0.77,0.804-1.285,1.515-1.148C46.452,61.592,46.926,62.327,46.801,63.097z"/>
						</g>
					</g>
				</g>
			</g>
			<g>
				<g>
					<path fill="#6D7C82" d="M45.147,57.639l-3.43,1.277c-0.715,0.266-1.516-0.101-1.781-0.814l-0.098-0.265
						c-0.266-0.713,0.1-1.515,0.813-1.78l3.43-1.276c0.714-0.266,1.515,0.1,1.78,0.813l0.099,0.265
						C46.226,56.572,45.86,57.374,45.147,57.639z"/>
				</g>
				<g>
					<path fill="#6D7C82" d="M70.071,57.639l3.43,1.277c0.713,0.266,1.516-0.101,1.781-0.814l0.098-0.265
						c0.266-0.713-0.102-1.515-0.814-1.78l-3.43-1.276c-0.713-0.266-1.514,0.1-1.779,0.813l-0.1,0.265
						C68.991,56.572,69.358,57.374,70.071,57.639z"/>
				</g>
			</g>
		</g>
		<g>
			<path fill="#CAD9DF" d="M93.613,29.356c-1.912-2.578-12.276,0.328-19.657,5.163c-1.766,1.158-3.365,2.328-4.818,3.479H57.528
				V92.61c0.043,0.002,0.082,0.014,0.125,0.014l0,0c2.879,0,5.213-2.334,5.213-5.213v-0.268c8.236-3.408,15.465-12.896,29.21-13.109
				c0.131-0.01,0.27-0.01,0.4-0.01c0-0.477-3.225-8.289-7.191-16.604C89.816,52.73,95.787,32.288,93.613,29.356z"/>
		</g>
	</g>
</g>
</svg>
