<?xml version="1.0" encoding="utf-8"?>
<!-- Generator: Adobe Illustrator 16.0.0, SVG Export Plug-In . SVG Version: 6.00 Build 0)  -->
<!DOCTYPE svg PUBLIC "-//W3C//DTD SVG 1.1//EN" "http://www.w3.org/Graphics/SVG/1.1/DTD/svg11.dtd">
<svg version="1.1" id="Layer_1" xmlns="http://www.w3.org/2000/svg" xmlns:xlink="http://www.w3.org/1999/xlink" x="0px" y="0px"
	 width="115.167px" height="115.722px" viewBox="0 0 115.167 115.722" enable-background="new 0 0 115.167 115.722"
	 xml:space="preserve">
<g id="icon_11_">
	<g>
		<defs>
			<circle id="SVGID_1_" cx="57.583" cy="57.861" r="55.187"/>
		</defs>
		<use xlink:href="#SVGID_1_"  overflow="visible" fill="#80BA2C"/>
		<clipPath id="SVGID_2_">
			<use xlink:href="#SVGID_1_"  overflow="visible"/>
		</clipPath>
		<g clip-path="url(#SVGID_2_)">
			<polygon fill="#579836" points="157.222,92.941 99.442,150.719 22.743,74.02 93.522,29.243 			"/>
		</g>
		<use xlink:href="#SVGID_1_"  overflow="visible" fill="none" stroke="#FFFFFF" stroke-width="2" stroke-miterlimit="10"/>
	</g>
</g>
<g>
	<path fill="#6D7C82" d="M21.554,29.356c1.912-2.578,12.275,0.328,19.656,5.163c1.766,1.158,3.365,2.328,4.818,3.479h11.609V92.61
		c-0.043,0.002-0.082,0.014-0.125,0.014l0,0c-2.879,0-5.213-2.334-5.213-5.213v-0.268c-8.236-3.408-15.465-12.896-29.209-13.109
		c-0.131-0.01-0.27-0.01-0.4-0.01c0-0.477,3.225-8.289,7.191-16.604C25.351,52.73,19.38,32.288,21.554,29.356z"/>
</g>
<g>
	<path fill="#CAD2D4" d="M31.676,56.712C25.731,48.824,23.122,34.58,24,32.239c1.986-0.944,10.294,1.175,17.049,5.601
		c2.792,1.828,5.443,3.878,7.785,6.01L31.676,56.712z"/>
</g>
<g>
	<path fill="#546D75" d="M90.489,47.236c0.13-0.359,0.257-0.722,0.382-1.087c0.009-0.024,0.017-0.049,0.025-0.073
		c0.119-0.348,0.236-0.697,0.351-1.048c0.014-0.043,0.028-0.086,0.042-0.13c0.108-0.331,0.214-0.662,0.317-0.995
		c0.021-0.068,0.042-0.138,0.063-0.206c0.095-0.309,0.189-0.616,0.28-0.924c0.026-0.09,0.051-0.178,0.077-0.267
		c0.084-0.287,0.167-0.574,0.247-0.859c0.031-0.111,0.06-0.222,0.091-0.332c0.072-0.263,0.144-0.524,0.212-0.784
		c0.035-0.132,0.067-0.262,0.101-0.393c0.061-0.236,0.122-0.474,0.18-0.708c0.038-0.154,0.073-0.307,0.11-0.46
		c0.049-0.207,0.1-0.414,0.146-0.618c0.04-0.172,0.075-0.34,0.112-0.51c0.04-0.182,0.081-0.364,0.118-0.543
		c0.038-0.179,0.07-0.352,0.105-0.526c0.033-0.166,0.067-0.334,0.098-0.496c0.033-0.177,0.062-0.348,0.092-0.521
		c0.027-0.153,0.056-0.31,0.081-0.461c0.029-0.18,0.054-0.353,0.08-0.528c0.02-0.134,0.042-0.271,0.06-0.401
		c0.025-0.185,0.045-0.359,0.065-0.537c0.014-0.113,0.03-0.231,0.042-0.343c0.019-0.178,0.031-0.345,0.045-0.515
		c0.008-0.102,0.02-0.208,0.026-0.306c0.011-0.168,0.016-0.324,0.022-0.483c0.003-0.089,0.01-0.185,0.012-0.271
		c0.003-0.155-0.001-0.298-0.003-0.443c-0.001-0.079,0.001-0.163-0.002-0.238c-0.005-0.138-0.018-0.261-0.029-0.388
		c-0.007-0.071-0.009-0.148-0.018-0.215c-0.015-0.126-0.038-0.236-0.06-0.349c-0.011-0.055-0.017-0.117-0.03-0.168
		c-0.027-0.115-0.062-0.213-0.098-0.312c-0.013-0.036-0.022-0.08-0.036-0.114c-0.053-0.125-0.113-0.235-0.181-0.328
		c-1.912-2.578-12.275,0.328-19.656,5.163c-0.473,0.311-0.932,0.621-1.381,0.932c-0.267,0.186-0.524,0.37-0.784,0.555
		c-0.161,0.115-0.324,0.23-0.482,0.345c-0.323,0.234-0.637,0.468-0.946,0.702c-0.067,0.051-0.134,0.101-0.201,0.151
		c-0.35,0.267-0.692,0.531-1.025,0.795H57.528V92.61c0.043,0.002,0.082,0.014,0.125,0.014c2.879,0,5.213-2.334,5.213-5.213v-0.268
		c8.236-3.408,15.465-12.896,29.209-13.109c0.131-0.01,0.27-0.01,0.4-0.01c0-0.477-3.225-8.289-7.191-16.604
		c1.699-1.759,3.599-5.726,5.198-10.163C90.484,47.25,90.486,47.243,90.489,47.236z"/>
	<g>
		<path fill="#9DB3BA" d="M83.489,56.712c5.945-7.889,8.555-22.133,7.676-24.473c-1.984-0.944-10.293,1.175-17.049,5.601
			c-2.791,1.828-5.443,3.878-7.785,6.01L83.489,56.712z"/>
	</g>
</g>
<g>
	<path fill="#CAD2D4" d="M77.52,67.651c1.139-1.791,1.809-3.91,1.809-6.189c0-6.388-5.178-11.565-11.564-11.565
		c-4.383,0-8.193,2.438-10.156,6.029c-1.961-3.592-5.772-6.029-10.154-6.029c-6.387,0-11.564,5.178-11.564,11.565
		c0,2.279,0.669,4.398,1.808,6.189c-5.702,0.155-10.846,2.564-14.554,6.383C36.261,74.33,46.233,86.52,55.9,88.168
		c0.567,0.096,1.142,0.148,1.708,0.148c0.576,0,1.15-0.044,1.709-0.141c9.885-1.594,17.084-13.898,32.758-14.143
		C88.366,70.215,83.223,67.806,77.52,67.651z"/>
</g>
<path fill="#9DB3BA" d="M79.329,61.461c0-6.388-5.178-11.565-11.564-11.565c-4.383,0-8.193,2.438-10.156,6.029
	c-0.011-0.021-0.024-0.04-0.036-0.061v32.45c0.012,0,0.024,0.002,0.036,0.002c0.576,0,1.15-0.044,1.709-0.141
	c9.885-1.594,17.084-13.898,32.758-14.143c-3.709-3.818-8.852-6.228-14.555-6.383C78.659,65.86,79.329,63.741,79.329,61.461z"/>
<g>
	<g>
		<g>
			<defs>
				<path id="SVGID_3_" d="M67.868,61.084c-2.52,0.48-4.264,2.692-3.898,4.939c0.131,0.811,0.525,1.508,1.088,2.055
					c0.951-0.771,2.227-1.369,3.68-1.646c1.453-0.278,2.842-0.189,3.98,0.184c0.354-0.721,0.504-1.523,0.373-2.334
					C72.723,62.036,70.385,60.603,67.868,61.084z"/>
			</defs>
			<use xlink:href="#SVGID_3_"  overflow="visible" fill="#3F6A8D"/>
			<clipPath id="SVGID_4_">
				<use xlink:href="#SVGID_3_"  overflow="visible"/>
			</clipPath>
			<g clip-path="url(#SVGID_4_)">
				<path fill="#3B3F40" d="M71.256,64.233c0.271,1.669-0.758,3.26-2.299,3.555s-3.01-0.82-3.281-2.489s0.758-3.261,2.299-3.556
					C69.514,61.449,70.985,62.563,71.256,64.233z"/>
			</g>
			<g clip-path="url(#SVGID_4_)">
				<path fill="#FFFFFF" d="M67.987,63.179c0.125,0.771-0.35,1.505-1.061,1.641s-1.389-0.378-1.516-1.149
					c-0.125-0.77,0.35-1.504,1.061-1.641C67.184,61.895,67.862,62.409,67.987,63.179z"/>
			</g>
		</g>
	</g>
	<g>
		<g>
			<defs>
				<path id="SVGID_5_" d="M47.35,61.084c-2.519-0.481-4.857,0.951-5.223,3.197c-0.132,0.811,0.019,1.613,0.373,2.334
					c1.137-0.373,2.525-0.462,3.979-0.184c1.453,0.277,2.729,0.875,3.681,1.646c0.561-0.547,0.956-1.244,1.088-2.055
					C51.614,63.777,49.869,61.565,47.35,61.084z"/>
			</defs>
			<use xlink:href="#SVGID_5_"  overflow="visible" fill="#448CCB"/>
			<clipPath id="SVGID_6_">
				<use xlink:href="#SVGID_5_"  overflow="visible"/>
			</clipPath>
			<g clip-path="url(#SVGID_6_)">
				<path fill="#494848" d="M49.542,65.298c-0.272,1.669-1.742,2.784-3.283,2.489c-1.54-0.295-2.568-1.886-2.297-3.555
					c0.271-1.67,1.74-2.784,3.281-2.49C48.784,62.038,49.813,63.629,49.542,65.298z"/>
			</g>
			<g clip-path="url(#SVGID_6_)">
				<path fill="#FFFFFF" d="M46.801,63.097c-0.125,0.771-0.804,1.284-1.515,1.149c-0.712-0.137-1.187-0.871-1.061-1.641
					c0.126-0.771,0.804-1.285,1.515-1.149S46.926,62.327,46.801,63.097z"/>
			</g>
		</g>
	</g>
</g>
<g>
	<g>
		<path fill="#6D7C82" d="M45.147,57.639l-3.43,1.277c-0.715,0.266-1.516-0.101-1.781-0.814l-0.098-0.265
			c-0.266-0.713,0.1-1.515,0.813-1.78l3.43-1.276c0.714-0.266,1.515,0.1,1.78,0.813l0.099,0.265
			C46.226,56.572,45.86,57.374,45.147,57.639z"/>
	</g>
	<g>
		<path fill="#546D75" d="M70.071,57.639l3.43,1.277c0.713,0.266,1.516-0.101,1.781-0.814l0.098-0.265
			c0.266-0.713-0.102-1.515-0.814-1.78l-3.43-1.276c-0.713-0.266-1.514,0.1-1.779,0.813l-0.1,0.265
			C68.991,56.572,69.358,57.374,70.071,57.639z"/>
	</g>
</g>
<g>
	<path fill="#F5B9BE" d="M58.133,92.624H57.17c-2.612,0-4.73-2.119-4.73-4.731v-8.409h10.426v8.409
		C62.866,90.504,60.747,92.624,58.133,92.624z"/>
</g>
<g>
	<path fill="#EF8790" d="M57.653,91.702c-0.459,0-0.831-0.371-0.831-0.83V79.833c0-0.459,0.372-0.83,0.831-0.83
		s0.83,0.371,0.83,0.83v11.039C58.483,91.331,58.112,91.702,57.653,91.702z"/>
</g>
<path fill="#E6F0F4" d="M62.182,73.727c-1.843,0-3.489,0.609-4.574,1.564c-1.084-0.955-2.73-1.564-4.575-1.564
	c-3.266,0-5.912,1.91-5.912,4.266c0,2.356,2.646,4.267,5.912,4.267c1.845,0,3.491-0.609,4.575-1.564
	c1.084,0.955,2.73,1.564,4.574,1.564c3.266,0,5.914-1.91,5.914-4.267C68.096,75.637,65.448,73.727,62.182,73.727z"/>
<g>
	<path fill="#494848" d="M63.829,74.051c0,1.016-3.855,2.715-6.221,2.715c-2.189,0-6.219-1.699-6.219-2.715s2.784-1.84,6.219-1.84
		C61.043,72.211,63.829,73.036,63.829,74.051z"/>
</g>
<g>
	<path fill="#B4B4B2" d="M60.706,73.579c0,0.474-1.92,1.266-3.098,1.266c-1.09,0-3.096-0.792-3.096-1.266s1.387-0.857,3.096-0.857
		C59.319,72.721,60.706,73.105,60.706,73.579z"/>
</g>
<path fill="#899799" d="M57.608,72.721c-0.012,0-0.023,0.001-0.036,0.001v2.119c0.011,0,0.025,0.003,0.036,0.003
	c1.178,0,3.098-0.792,3.098-1.266S59.319,72.721,57.608,72.721z"/>
<path fill="#C59DA7" d="M57.604,80.16v12.464h0.592c2.613,0,4.732-2.119,4.732-4.731V80.16H57.604z"/>
<path fill="#C17481" d="M57.572,80.035v11.657c0.017,0.001,0.031,0.01,0.049,0.01c0.459,0,0.83-0.371,0.83-0.83V80.035H57.572z"/>
<path fill="#B4CAD5" d="M62.15,73.727c-1.843,0-3.489,0.609-4.574,1.564c-0.001-0.001-0.003-0.002-0.004-0.004v5.411
	c0.001-0.002,0.003-0.003,0.004-0.004c1.084,0.955,2.73,1.564,4.574,1.564c3.266,0,5.914-1.91,5.914-4.267
	C68.064,75.637,65.416,73.727,62.15,73.727z"/>
<path fill="#3B3F40" d="M57.608,72.211c-0.012,0-0.023,0.001-0.036,0.001v4.552c0.011,0,0.024,0.002,0.036,0.002
	c2.365,0,6.221-1.699,6.221-2.715S61.043,72.211,57.608,72.211z"/>
<path fill="#9DB3BA" d="M57.608,72.721c-0.012,0-0.023,0.001-0.036,0.001v2.119c0.011,0,0.025,0.003,0.036,0.003
	c1.178,0,3.098-0.792,3.098-1.266S59.319,72.721,57.608,72.721z"/>
</svg>
